<?xml version="1.0" encoding="utf-8"?>
<!-- Generator: Adobe Illustrator 25.1.0, SVG Export Plug-In . SVG Version: 6.00 Build 0)  -->
<svg version="1.1" id="Layer_1" xmlns="http://www.w3.org/2000/svg" xmlns:xlink="http://www.w3.org/1999/xlink" x="0px" y="0px"
	 viewBox="0 0 500 500" style="enable-background:new 0 0 500 500;" xml:space="preserve">
<style type="text/css">
	.st0{fill:#F5F5F5;}
	.st1{fill:#E6E6E6;}
	.st2{fill:#37474F;}
	.st3{fill:#455A64;}
	.st4{opacity:0.6;enable-background:new    ;}
	.st5{opacity:0.5;enable-background:new    ;}
	.st6{opacity:0.4;enable-background:new    ;}
	.st7{opacity:0.15;enable-background:new    ;}
	.st8{fill:#263238;}
	.st9{fill:#E0E0E0;}
	.st10{fill:#EBEBEB;}
	.st11{fill:#FFFFFF;}
	.st12{opacity:0.5;fill:#FFFFFF;enable-background:new    ;}
	.st13{opacity:0.5;}
	.st14{opacity:0.9;fill:#263238;enable-background:new    ;}
	.st15{opacity:0.6;fill:#FFFFFF;enable-background:new    ;}
	.st16{opacity:0.6;}
	.st17{opacity:0.8;fill:#FFFFFF;enable-background:new    ;}
	.st18{opacity:0.8;}
	.st19{opacity:0.9;}
	.st20{opacity:0.6;fill:#37474F;enable-background:new    ;}
	.st21{opacity:0.7;}
	.st22{opacity:0.3;}
	.st23{opacity:0.25;}
	.st24{opacity:0.1;enable-background:new    ;}
	.st25{fill:#FFA8A7;}
	.st26{fill:#FAFAFA;}
	.st27{opacity:0.4;}
	.st28{fill:#F28F8F;}
	.st29{opacity:0.75;fill:#FFFFFF;enable-background:new    ;}
	.st30{opacity:0.1;fill:#37474F;enable-background:new    ;}
	.st31{opacity:0.3;enable-background:new    ;}
	.st32{opacity:0.2;enable-background:new    ;}
	.st33{fill:#F0F0F0;}
</style>
<g id="freepik--Floor--inject-4">
	<ellipse id="freepik--floor--inject-4" class="st0" cx="249.9" cy="362.4" rx="224.2" ry="124.1"/>
</g>
<g id="freepik--Shadows--inject-4">
	<path id="freepik--Shadow--inject-4" class="st1" d="M48,343.1l125,72.2c1.1,0.5,2.3,0.5,3.4,0l180.2-104c0.5-0.1,0.9-0.7,0.7-1.2
		c-0.1-0.4-0.4-0.6-0.7-0.7l-125-72.2c-1.1-0.5-2.3-0.5-3.4,0L48,341.2c-0.5,0.1-0.9,0.7-0.7,1.2C47.4,342.8,47.7,343.1,48,343.1z"
		/>
	<ellipse id="freepik--shadow--inject-4" class="st1" cx="338.5" cy="412.4" rx="75.1" ry="43.4"/>
	<ellipse id="freepik--shadow--inject-4_1_" class="st1" cx="247.1" cy="362.1" rx="59.1" ry="34.1"/>
	<ellipse id="freepik--shadow--inject-4_2_" class="st1" cx="115.6" cy="407.9" rx="37.1" ry="21.4"/>
</g>
<g id="freepik--Desk--inject-4">
	<g id="freepik--desk--inject-4">
		<g id="freepik--Table--inject-4">
			<path class="st2" d="M170.3,286.4v111c0,0.8,0.5,1.5,1.1,1.9l2.4,1.4c0.7,0.4,1.5,0.4,2.2,0l2.4-1.4c0.7-0.4,1.1-1.2,1.1-1.9
				v-111c0-0.7-0.5-1-1.1-0.6l-2.4,1.4c-0.7,0.4-1.5,0.4-2.2,0l-2.4-1.4C170.8,285.4,170.3,285.6,170.3,286.4z"/>
			<path class="st3" d="M176,400.6l2.4-1.4c0.7-0.4,1.1-1.2,1.1-1.9v-111c0-0.7-0.5-1-1.1-0.6l-2.4,1.4c-0.7,0.4-1.1,1.1-1.1,1.9
				v111C174.9,400.7,175.4,401,176,400.6z"/>
			<path class="st2" d="M68.8,227.7v110.9c0,0.8,0.5,1.5,1.1,1.9l2.4,1.4c0.7,0.4,1.5,0.4,2.2,0l2.4-1.4c0.7-0.4,1.1-1.2,1.1-1.9
				v-111c0-0.7-0.5-1-1.1-0.6l-2.4,1.4c-0.7,0.4-1.5,0.4-2.2,0l-2.4-1.4C69.3,226.7,68.8,227,68.8,227.7z"/>
			<path class="st3" d="M74.5,342l2.4-1.4c0.7-0.4,1.1-1.2,1.1-1.9v-111c0-0.7-0.5-1-1.1-0.6l-2.4,1.4c-0.7,0.4-1.1,1.2-1.1,1.9
				v110.9C73.4,342,73.9,342.3,74.5,342z"/>
			<path class="st2" d="M307,207.5v111c0,0.8,0.5,1.5,1.1,1.9l2.4,1.4c0.7,0.4,1.5,0.4,2.2,0l2.4-1.4c0.7-0.4,1.1-1.2,1.1-1.9v-111
				c0-0.7-0.5-1-1.1-0.6l-2.4,1.4c-0.7,0.4-1.5,0.4-2.2,0l-2.4-1.4C307.5,206.5,307,206.8,307,207.5z"/>
			<path class="st3" d="M312.7,321.7l2.4-1.4c0.7-0.4,1.1-1.2,1.1-1.9v-111c0-0.7-0.5-1-1.1-0.6l-2.4,1.4c-0.7,0.4-1.1,1.2-1.1,1.9
				v110.9C311.6,321.8,312.1,322.1,312.7,321.7z"/>
			<path class="st2" d="M46.7,235.6v-0.8c0.1-1.4,0.8-2.7,2-3.5l179-103.3c1.3-0.7,2.8-0.7,4.1,0l110.1,63.6c1.2,0.8,1.9,2.1,2,3.5
				v0.9c-0.1,1.4-0.8,2.7-2,3.5l-179,103.3c-1.3,0.6-2.8,0.6-4.1,0L48.7,239.1C47.5,238.3,46.8,237,46.7,235.6z"/>
			<path class="st4" d="M46.7,235.6v-0.8c0.1-1.4,0.8-2.7,2-3.5l179-103.3c1.3-0.7,2.8-0.7,4.1,0l110.1,63.6c1.2,0.8,1.9,2.1,2,3.5
				v0.9c-0.1,1.4-0.8,2.7-2,3.5l-179,103.3c-1.3,0.6-2.8,0.6-4.1,0L48.7,239.1C47.5,238.3,46.8,237,46.7,235.6z"/>
			<path class="st2" d="M160.9,297.7v5.5c-0.7,0-1.4-0.2-2-0.5L48.7,239.1c-1.2-0.8-1.9-2.1-2-3.5v-0.8c0.1-1.3,0.7-2.5,1.7-3.3
				c-0.7,0.6-0.6,1.5,0.4,2.1l110.1,63.6C159.5,297.6,160.2,297.7,160.9,297.7z"/>
			<path class="st5" d="M160.9,297.7v5.5c-0.7,0-1.4-0.2-2-0.5L48.7,239.1c-1.2-0.8-1.9-2.1-2-3.5v-0.8c0.1-1.3,0.7-2.5,1.7-3.3
				c-0.7,0.6-0.6,1.5,0.4,2.1l110.1,63.6C159.5,297.6,160.2,297.7,160.9,297.7z"/>
			<path class="st2" d="M48.7,233.6l110.1,63.6c1.3,0.7,2.8,0.7,4.1,0L342,194c0.6-0.2,1-0.9,0.8-1.6c-0.1-0.4-0.4-0.7-0.8-0.8
				L231.8,128c-1.3-0.7-2.8-0.7-4.1,0l-179,103.3c-0.6,0.2-1,0.9-0.8,1.6C48.1,233.2,48.4,233.5,48.7,233.6z"/>
			<path class="st6" d="M48.7,233.6l110.1,63.6c1.3,0.7,2.8,0.7,4.1,0L342,194c0.6-0.2,1-0.9,0.8-1.6c-0.1-0.4-0.4-0.7-0.8-0.8
				L231.8,128c-1.3-0.7-2.8-0.7-4.1,0l-179,103.3c-0.6,0.2-1,0.9-0.8,1.6C48.1,233.2,48.4,233.5,48.7,233.6z"/>
		</g>
		<g id="freepik--Keyboard--inject-4">
			<path id="freepik--shadow--inject-4_3_" class="st7" d="M174.4,232.2l26.1,15.1c0.9,0.5,2,0.5,2.9,0l77.1-44.4
				c0.5-0.2,0.7-0.7,0.6-1.1c-0.1-0.3-0.3-0.5-0.6-0.6l-26.1-15.1c-0.9-0.5-2-0.5-2.9,0l-77.1,44.4c-0.5,0.2-0.7,0.7-0.5,1.2
				C174,232,174.2,232.1,174.4,232.2z"/>
			<g id="freepik--keyboard--inject-4">
				<path class="st8" d="M279,198.5c0-0.4-0.3-0.7-0.6-0.8l-24.5-14.1c-0.9-0.5-2-0.5-2.9,0l-74.8,43.2c-0.3,0.1-0.6,0.5-0.6,0.9
					v2.6c0,0.4,0.3,0.7,0.6,0.8l24.5,14.1c0.9,0.5,2,0.5,2.9,0l74.8-43.2c0.3-0.1,0.6-0.5,0.6-0.8V198.5z"/>
				<path class="st2" d="M200.6,242.6l-24.5-14.1c-0.5-0.2-0.7-0.7-0.6-1.1c0.1-0.3,0.3-0.5,0.6-0.6l74.8-43.2c0.9-0.5,2-0.5,2.9,0
					l24.5,14.1c0.5,0.2,0.7,0.7,0.6,1.1c-0.1,0.3-0.3,0.5-0.6,0.6l-74.8,43.2C202.6,243,201.5,243,200.6,242.6z"/>
				<path class="st8" d="M202,242.9v2.6c-0.5,0-0.9-0.1-1.4-0.3l-24.5-14.1c-0.3-0.1-0.6-0.5-0.6-0.9v-2.6c0,0.4,0.3,0.7,0.6,0.9
					l24.5,14.1C201,242.8,201.5,242.9,202,242.9z"/>
				<path class="st2" d="M274.4,198.7L274.4,198.7l-2.4-1.4l-3.3,1.9l2.4,1.4L274.4,198.7L274.4,198.7z M270.6,196.5L270.6,196.5
					l-2.4-1.4l-2.6,1.5l2.4,1.4L270.6,196.5L270.6,196.5z M269.8,201.4L269.8,201.4l-2.4-1.4l-2.6,1.5l2.4,1.4L269.8,201.4
					L269.8,201.4z M266.8,194.4L266.8,194.4l-2.4-1.4l-4.2,2.4l2.4,1.4L266.8,194.4L266.8,194.4z M266.7,198.8L266.7,198.8l-2.4-1.4
					l-2.1,1.2l2.4,1.4L266.7,198.8L266.7,198.8z M265.9,203.7L265.9,203.7l-2.4-1.4l-2.6,1.5l2.4,1.4L265.9,203.7L265.9,203.7z
					 M263.4,200.8L263.4,200.8l-2.4-1.4l-2,1.2l2.4,1.4L263.4,200.8L263.4,200.8z M263,192.2L263,192.2l-2.4-1.4l-3.3,1.9l2.4,1.4
					L263,192.2L263,192.2z M262,205.9L262,205.9l-2.4-1.4l-18.7,10.8l2.4,1.4L262,205.9L262,205.9z M261.3,197.5L261.3,197.5
					l-2.4-1.4l-2,1.2l2.4,1.4L261.3,197.5L261.3,197.5z M260,202.7L260,202.7l-2.4-1.4l-2.1,1.2l2.4,1.4L260,202.7L260,202.7z
					 M259.2,190L259.2,190l-2.4-1.4l-2.1,1.2l2.4,1.4L259.2,190L259.2,190z M258.4,194.9L258.4,194.9l-2.4-1.4l-2.1,1.2l2.4,1.4
					L258.4,194.9L258.4,194.9z M258,199.5L258,199.5l-2.4-1.4l-2.1,1.2l2.4,1.4L258,199.5L258,199.5z M256.6,204.7L256.6,204.7
					l-2.4-1.4l-2,1.2l2.4,1.4L256.6,204.7L256.6,204.7z M255.9,191.9L255.9,191.9l-2.4-1.4l-2.1,1.2l2.4,1.4L255.9,191.9
					L255.9,191.9z M255.1,196.8L255.1,196.8l-2.4-1.4l-2.1,1.2l2.4,1.4L255.1,196.8L255.1,196.8z M254.6,201.4L254.6,201.4l-2.4-1.4
					l-2,1.2l2.4,1.4L254.6,201.4L254.6,201.4z M254.6,187.3L254.6,187.3l-2.4-1.4l-2.6,1.5l2.4,1.4L254.6,187.3L254.6,187.3z
					 M253.3,206.6L253.3,206.6l-2.4-1.4l-2.1,1.2l2.4,1.4L253.3,206.6L253.3,206.6z M252.5,193.9L252.5,193.9l-2.4-1.4l-2.1,1.2
					l2.4,1.3L252.5,193.9L252.5,193.9z M251.7,198.7L251.7,198.7l-2.4-1.4l-2.1,1.2l2.4,1.4L251.7,198.7L251.7,198.7z M251.2,203.4
					L251.2,203.4l-2.4-1.4l-2.1,1.2l2.4,1.4L251.2,203.4L251.2,203.4z M249.9,208.5L249.9,208.5l-2.4-1.4l-2,1.2l2.4,1.4
					L249.9,208.5L249.9,208.5z M249.3,190.4L249.3,190.4l-2.4-1.4l-2.1,1.2l2.4,1.4L249.3,190.4L249.3,190.4z M249.1,195.8
					L249.1,195.8l-2.4-1.4l-2.1,1.2l2.4,1.4L249.1,195.8L249.1,195.8z M248.3,200.7L248.3,200.7l-2.4-1.4l-2.1,1.2l2.4,1.4
					L248.3,200.7L248.3,200.7z M247.9,205.3L247.9,205.3l-2.4-1.4l-2,1.2l2.4,1.4L247.9,205.3L247.9,205.3z M246.6,210.5
					L246.6,210.5l-2.4-1.5l-2,1.2l2.4,1.4L246.6,210.5L246.6,210.5z M245.9,192.4L245.9,192.4l-2.4-1.4l-2.1,1.2l2.4,1.4
					L245.9,192.4L245.9,192.4z M245.8,197.8L245.8,197.8l-2.4-1.4l-2.1,1.2l2.4,1.4L245.8,197.8L245.8,197.8z M245,202.6L245,202.6
					l-2.4-1.4l-2.1,1.2l2.4,1.4L245,202.6L245,202.6z M244.5,207.3L244.5,207.3l-2.4-1.4l-2,1.2l2.4,1.4L244.5,207.3L244.5,207.3z
					 M243.2,212.4L243.2,212.4l-2.4-1.4l-2,1.2l2.4,1.4L243.2,212.4L243.2,212.4z M242.5,194.3L242.5,194.3l-2.4-1.4l-2,1.2l2.4,1.4
					L242.5,194.3L242.5,194.3z M242.4,199.7L242.4,199.7l-2.4-1.4l-2,1.2l2.5,1.4L242.4,199.7L242.4,199.7z M242.1,217.5
					L242.1,217.5l-2.4-1.4l-2.6,1.5l2.4,1.4L242.1,217.5L242.1,217.5z M241.6,204.6L241.6,204.6l-2.4-1.4l-2.1,1.2l2.4,1.4
					L241.6,204.6L241.6,204.6z M241.2,209.2L241.2,209.2l-2.4-1.4l-2,1.1l2.4,1.4L241.2,209.2L241.2,209.2z M239.8,214.4
					L239.8,214.4l-2.4-1.4l-2.1,1.2l2.5,1.4L239.8,214.4L239.8,214.4z M239.2,196.2L239.2,196.2l-2.4-1.4l-2,1.1l2.4,1.4
					L239.2,196.2L239.2,196.2z M239.1,201.6L239.1,201.6l-2.4-1.4l-2,1.2l2.4,1.4L239.1,201.6L239.1,201.6z M238.3,206.5
					L238.3,206.5l-2.4-1.4l-2,1.2l2.4,1.4L238.3,206.5L238.3,206.5z M238.2,219.7L238.2,219.7l-2.4-1.4l-2.6,1.5l2.4,1.4
					L238.2,219.7L238.2,219.7z M237.8,211.1L237.8,211.1l-2.4-1.4l-2,1.2l2.3,1.4L237.8,211.1L237.8,211.1z M236.5,216.3
					L236.5,216.3l-2.4-1.4l-2.1,1.2l2.5,1.4L236.5,216.3L236.5,216.3z M235.7,203.6L235.7,203.6l-2.4-1.4l-2,1.2l2.4,1.4
					L235.7,203.6L235.7,203.6z M234.9,208.4L234.9,208.4l-2.4-1.4l-2,1.2l2.4,1.4L234.9,208.4L234.9,208.4z M234.5,213.1
					L234.5,213.1l-2.4-1.4l-2,1.2l2.4,1.4L234.5,213.1L234.5,213.1z M234.4,199.1L234.4,199.1l-2.4-1.4l-2,1.2l2.4,1.4L234.4,199.1
					L234.4,199.1z M234.3,222L234.3,222l-2.4-1.4l-2.6,1.5l2.5,1.3L234.3,222L234.3,222z M233.1,218.3L233.1,218.3l-2.4-1.4
					l-2.1,1.2l2.5,1.4L233.1,218.3L233.1,218.3z M232.3,205.6L232.3,205.6l-2.4-1.4l-2.1,1.2l2.4,1.4L232.3,205.6L232.3,205.6z
					 M231.5,210.4L231.5,210.4l-2.4-1.4l-2,1.2l2.4,1.4L231.5,210.4L231.5,210.4z M231.1,215L231.1,215l-2.4-1.4l-2.1,1.2l2.5,1.4
					L231.1,215L231.1,215z M231,201L231,201l-2.4-1.4l-2,1.2l2.4,1.4L231,201L231,201z M230.4,224.3L230.4,224.3l-2.4-1.4l-3.3,1.9
					l2.4,1.4L230.4,224.3L230.4,224.3z M229.8,220.3L229.8,220.3l-2.4-1.4l-6.5,3.7l2.4,1.4l6.4-3.9L229.8,220.3z M229,207.6
					L229,207.6l-2.4-1.4l-2,1.2l2.4,1.4L229,207.6L229,207.6z M228.2,212.4L228.2,212.4l-2.4-1.4l-2,1l2.4,1.4l2-1.2L228.2,212.4z
					 M227.7,217L227.7,217l-2.4-1.4l-2.1,1.2l2.5,1.3l2-1.2L227.7,217z M227.6,203L227.6,203l-2.4-1.4l-2,1.2l2.4,1.4L227.6,203
					L227.6,203z M225.6,209.5L225.6,209.5l-2.4-1.4l-2,1.2l2.4,1.4L225.6,209.5L225.6,209.5z M225.1,227.4L225.1,227.4l-2.4-1.4
					l-2.1,1.2l2.5,1.4L225.1,227.4L225.1,227.4z M224.8,214.4L224.8,214.4l-2.4-1.4l-2,1.2l2.3,1.2l2-1.2L224.8,214.4z M224.4,219
					L224.4,219l-2.4-1.4l-1.9,1.1c-0.2,0.1-0.4,0.1-0.6,0.1c-0.2,0-0.4,0-0.6-0.1l-3.2-1.8l-2.4,1.4l6.2,3.6L224.4,219L224.4,219z
					 M224.3,205L224.3,205l-2.4-1.4l-2,1.2l2.4,1.2l2-1.2L224.3,205z M222.3,211.5L222.3,211.5l-2.4-1.4l-2.1,1.2l2.4,1.4
					L222.3,211.5L222.3,211.5z M221.7,229.4L221.7,229.4l-2.4-1.4l-2.1,1.2l2.5,1.4L221.7,229.4L221.7,229.4z M221.5,216.4
					L221.5,216.4l-2.4-1.4l-2,1.2l2.4,1.4L221.5,216.4L221.5,216.4z M219.5,207.8L219.5,207.8l-2.4-1.4l-2.1,1.2l2.5,1.4
					L219.5,207.8L219.5,207.8z M218.9,213.4L218.9,213.4l-2.4-1.4l-2.1,1.2l2.4,1.4L218.9,213.4L218.9,213.4z M218.4,231.3
					L218.4,231.3l-2.4-1.4l-2,1.2l2.5,1.4L218.4,231.3L218.4,231.3z M217.9,227.2L217.9,227.2l-2.4-1.4l-2.1,1.2l2.5,1.4l2-1.4
					L217.9,227.2z M216.1,209.8L216.1,209.8l-2.4-1.4l-2,1.2l2.4,1.4L216.1,209.8L216.1,209.8z M215.6,215.4L215.6,215.4l-2.4-1.4
					l-3.6,2.1l2.4,1.4L215.6,215.4L215.6,215.4z M214.3,233.7L214.3,233.7l-2.4-1.4l-5.4,3.1l2.5,1.4L214.3,233.7L214.3,233.7z
					 M213.7,220.9L213.7,220.9l-2.4-1.4l-2,1.2l2.4,1.4L213.7,220.9L213.7,220.9z M212.8,211.7L212.8,211.7l-2.4-1.4l-2,1.2l2.4,1.2
					l2-1.2L212.8,211.7z M210.5,231.5L210.5,231.5l-2.4-1.4l-2,1.2l2.4,1.4L210.5,231.5L210.5,231.5z M210.4,222.8L210.4,222.8
					l-2.4-1.4l-2,1.2l2.4,1.4L210.4,222.8L210.4,222.8z M209.9,218.7L209.9,218.7l-2.4-1.4l-2,1.2l2.4,1.4L209.9,218.7L209.9,218.7z
					 M209.4,213.7L209.4,213.7l-2.4-1.4l-2,1.2l2.4,1.4L209.4,213.7L209.4,213.7z M207.6,237.6L207.6,237.6l-2.4-1.4l-2.1,1.2
					l2.5,1.4L207.6,237.6L207.6,237.6z M207.2,233.4L207.2,233.4l-2.4-1.4l-2,1.2l2.4,1.4L207.2,233.4L207.2,233.4z M207,224.8
					L207,224.8l-2.4-1.4l-2,1.2l2.4,1.4L207,224.8L207,224.8z M206.7,229.3L206.7,229.3l-2.4-1.4l-2,1.2l2.4,1.4L206.7,229.3
					L206.7,229.3z M206.6,220.6L206.6,220.6l-2.4-1.4l-2,1.2l2.4,1.4L206.6,220.6L206.6,220.6z M205.3,216L205.3,216l-2.4-1.4
					l-2.1,1.2l2.4,1.2l2-1.2L205.3,216z M204.2,239.5L204.2,239.5l-6.2-3.6l-2,1.2l6.2,3.6L204.2,239.5L204.2,239.5z M203.8,235.4
					L203.8,235.4l-2.4-1.4l-2,1.2l2.4,1.2l2-1.2L203.8,235.4z M203.4,231.2L203.4,231.2l-2.4-1.4l-2,1.2l2.4,1.4l2-1.5L203.4,231.2z
					 M203.2,222.6L203.2,222.6l-2.4-1.4l-2,1.2l2.4,1.4L203.2,222.6L203.2,222.6z M202.9,227.1L202.9,227.1l-2.4-1.4l-2,1.2l2.4,1.4
					L202.9,227.1L202.9,227.1z M201.9,218L201.9,218l-2.4-1.4l-2.1,1.2l2.4,1.4L201.9,218L201.9,218z M200,233.2L200,233.2l-2.4-1.4
					l-2,1.2l2.4,1.4l2-1.4L200,233.2z M199.5,229L199.5,229l-2.4-1.4l-2,1.2l2.4,1.2l2-1.2L199.5,229z M199.1,224.9L199.1,224.9
					l-2.4-1.4l-2.1,1.2l2.5,1.4L199.1,224.9L199.1,224.9z M198.6,219.9L198.6,219.9l-2.4-1.4l-2.1,1.2l2.4,1.4L198.6,219.9
					L198.6,219.9z M196.6,235.1L196.6,235.1l-6.2-3.6l-2,1.2l6.2,3.6L196.6,235.1L196.6,235.1z M196.2,231L196.2,231l-2.4-1.4
					l-2,1.2l2.4,1.4L196.2,231L196.2,231z M195.7,226.9L195.7,226.9l-2.4-1.4l-2.1,1.2l2.5,1.2l2-1.2L195.7,226.9z M193.5,221.7
					L193.5,221.7l-1-0.6l-2.1,1.2l1.1,0.6L193.5,221.7L193.5,221.7z M192.4,228.8L192.4,228.8l-2.4-1.4l-2.1,1.2l2.5,1.4
					L192.4,228.8L192.4,228.8z M190.1,223.6L190.1,223.6l-1-0.6l-2.1,1.2l1.1,0.6L190.1,223.6L190.1,223.6z M189,230.7L189,230.7
					l-2.4-1.4l-2.1,1.2l2.5,1.4L189,230.7L189,230.7z M186.8,225.6L186.8,225.6l-1-0.6l-2.1,1.2l1.1,0.6L186.8,225.6L186.8,225.6z
					 M183.4,227.5L183.4,227.5l-1-0.6l-2.1,1.2l1.1,0.6L183.4,227.5L183.4,227.5z"/>
			</g>
		</g>
		<g id="freepik--Device--inject-4">
			<polygon id="freepik--shadow--inject-4_4_" class="st7" points="114.1,235.2 91.2,221.9 206,155.7 228.9,168.9 			"/>
			<g id="freepik--Monitor--inject-4">
				<path class="st1" d="M179.1,213.6l16.4-9.5c1.7-1,2.5-2.2,2.5-3.5v-2.3l-15.4-8.8c-1-0.6-1.6-1.7-1.6-2.8v-20.2l-28.6,16.5v20.2
					c0.1,1.1,0.7,2.2,1.6,2.8l12.9,7.5C170.7,215.5,175.3,215.5,179.1,213.6z"/>
				<path class="st9" d="M159.2,206.9v2.3l-5.2-3c-1-0.6-1.6-1.7-1.6-2.8v-20.2l5.5-3.1c0.1,1.4,0.2,2.8,0.4,4.2l-3.8,2.2v15.8
					c0.1,1.2,0.7,2.2,1.6,2.8L159.2,206.9z"/>
				<path class="st0" d="M154.4,202.1c0.1,1.1,0.7,2.2,1.6,2.8l10.9,6.4c3.8,1.9,8.4,1.9,12.2,0l16.4-9.5c3.4-1.9,3.4-5.1,0-7.1
					l-10.9-6.4c-1-0.6-1.6-1.7-1.6-2.8v-15.8l-28.6,16.5L154.4,202.1z"/>
				<path class="st10" d="M187.9,190.3L187.9,190.3l-3.3-1.9c-1-0.6-1.6-1.7-1.6-2.8v-15.8l-28.6,16.5v15.8c0.1,1.1,0.7,2.2,1.6,2.8
					l3.3,1.9L187.9,190.3z"/>
				<path class="st10" d="M198,198.3v2.3c0,1.3-0.9,2.6-2.5,3.5l-16.4,9.5c-1.8,1-3.8,1.5-5.8,1.4v-2.3c2,0,4-0.5,5.8-1.4l16.4-9.5
					C197.2,200.9,198,199.6,198,198.3z"/>
				<path class="st3" d="M108.4,223.9c1.3,0.6,2.7,0.6,4-0.1L223,160c1.2-0.8,1.9-2.1,2-3.5V59.5c0.1-2.1-1.6-3.9-3.7-4
					c-0.8,0-1.5,0.2-2.2,0.6l-110.7,63.9c-1.2,0.8-1.9,2.1-2,3.5v96.9C106.5,221.9,107.2,223.1,108.4,223.9z"/>
				<path class="st2" d="M112.4,223.9L223,160c1.2-0.8,1.9-2.1,2-3.5V59.5c0-1.3-0.9-1.8-2-1.2l-110.7,63.9c-1.2,0.8-1.9,2.1-2,3.5
					v96.9C110.3,224,111.2,224.5,112.4,223.9z"/>
				<path class="st9" d="M112,224.3c-1.9,1-4.2,0.2-5.1-1.6c-0.3-0.6-0.5-1.2-0.4-1.9v-10.9l3.8,2.2v10.9
					C110.3,224.1,111.1,224.6,112,224.3z"/>
				<path class="st11" d="M110.3,212v10.9c0,1.3,0.9,1.8,2,1.2L223,160.2c1.2-0.8,1.9-2.1,2-3.5v-10.9L110.3,212z"/>
				<path class="st2" d="M114.1,203.7v-76.7c0-0.9,0.5-1.6,1.2-2.1L220,64.5c0.7-0.4,1.2-0.1,1.2,0.7v76.7c0,0.9-0.5,1.6-1.2,2.1
					l-104.7,60.4C114.7,204.8,114.1,204.5,114.1,203.7z"/>
				<path class="st12" d="M114.1,203.7v-76.7c0-0.9,0.5-1.6,1.2-2.1L220,64.5c0.7-0.4,1.2-0.1,1.2,0.7v76.7c0,0.9-0.5,1.6-1.2,2.1
					l-104.7,60.4C114.7,204.8,114.1,204.5,114.1,203.7z"/>
				<path class="st3" d="M167.7,183.1c-1.1,0.7-1.8,2-1.9,3.3c0,1.2,0.9,1.7,1.9,1.1c1.1-0.7,1.8-2,1.9-3.3
					C169.6,183,168.7,182.5,167.7,183.1z"/>
				<path class="st8" d="M110.9,123.8c-0.4,0.6-0.6,1.3-0.6,2V212l-3.8-2.2v-86.2c0-0.7,0.2-1.4,0.6-2L110.9,123.8z"/>
			</g>
		</g>
		<g id="freepik--Window--inject-4">
			<g id="freepik--window--inject-4">
				<path class="st3" d="M207,39.5c0-0.1,0-0.1,0-0.2l0,0c0-0.1,0-0.1,0-0.2c0-0.1-0.1-0.2-0.1-0.2c0,0,0-0.1-0.1-0.1l-0.1-0.1
					c0,0-0.1-0.1-0.1-0.1l0,0c-0.1,0-0.1-0.1-0.2-0.1c-0.4-0.2-0.9-0.1-1.3,0.2L76,113.2c-1.1,0.8-1.9,2-2,3.4v93.5l0,0v0.4
					c0,0.5,0.3,0.9,0.7,1.2l0.1,0.1l0.1,0.1h0.2c0.1,0,0.2,0,0.2,0c0.2,0,0.4-0.1,0.6-0.2h0l0,0l1.7-1L205,137.1
					c1.2-0.8,1.9-2,2-3.4v-94C207,39.7,207,39.6,207,39.5z"/>
				<path class="st2" d="M206.3,38.5c-0.4-0.2-0.9-0.1-1.3,0.2L75.9,113.2c-1.1,0.8-1.9,2-2,3.4v6.4l-2.5-1.5v-6.3
					c0.1-1.4,0.8-2.6,2-3.4l129.2-74.6c0.4-0.3,1-0.3,1.4-0.1C204.3,37.3,205.9,38.3,206.3,38.5z"/>
				<path class="st2" d="M207,39.8c0-1.2-0.9-1.7-2-1.1L75.9,113.2c-1.2,0.7-1.9,2-2,3.4v6.4L207,46.2V39.8z"/>
				<g class="st13">
					<path class="st11" d="M205,38.7L75.9,113.2c-0.6,0.4-1,0.9-1.4,1.4l-2.5-1.4c0.3-0.6,0.8-1.1,1.4-1.4l129.2-74.5
						c0.4-0.3,1-0.3,1.4-0.1c0.4,0.2,2,1.1,2.4,1.4C205.9,38.3,205.4,38.4,205,38.7z"/>
				</g>
				<path class="st7" d="M71.4,121.5v-6.3c0-0.7,0.2-1.4,0.6-2l2.5,1.4c-0.4,0.6-0.6,1.3-0.6,1.9v6.5L71.4,121.5z"/>
				<path class="st3" d="M78.3,114.5c-0.7,0.6-1.1,1.4-1.1,2.3c0,0.9,0.5,1.4,1.1,1.1c0.7-0.6,1.1-1.4,1.1-2.3
					C79.4,114.7,78.9,114.2,78.3,114.5z"/>
				<path class="st3" d="M82.3,112.2c-0.7,0.6-1.1,1.4-1.1,2.3c0,0.9,0.5,1.4,1.1,1.1c0.7-0.6,1.1-1.4,1.1-2.3
					C83.4,112.4,82.9,111.9,82.3,112.2z"/>
				<path class="st3" d="M86.2,110c-0.7,0.6-1.1,1.4-1.1,2.3c0,0.9,0.5,1.4,1.1,1.1c0.7-0.6,1.1-1.4,1.1-2.3
					C87.3,110.1,86.9,109.6,86.2,110z"/>
				<path class="st14" d="M74.6,211.7l-0.1-0.1l-2.1-1.2c-0.5-0.3-0.9-0.9-1-1.5c0-0.1,0-0.2,0-0.3v-87.2l2.5,1.5v87.6
					C73.9,211,74.2,211.4,74.6,211.7L74.6,211.7L74.6,211.7L74.6,211.7z"/>
			</g>
			<g id="freepik--Code--inject-4">
				<path class="st2" d="M167.4,79.4l-27.2,15.7c-0.4,0.2-0.7,0.7-0.7,1.2c0,0.4,0.3,0.6,0.7,0.3l27.2-15.7c0.4-0.3,0.7-0.7,0.7-1.2
					C168.1,79.4,167.8,79.2,167.4,79.4z"/>
				<path class="st1" d="M157,109.5l-10.3,5.9c-0.4,0.3-0.7,0.7-0.7,1.2c0,0.4,0.3,0.6,0.7,0.3L157,111c0.4-0.2,0.7-0.7,0.7-1.2
					C157.7,109.4,157.4,109.3,157,109.5z"/>
				<path class="st1" d="M157,115.5l-10.3,5.9c-0.4,0.3-0.7,0.7-0.7,1.2c0,0.4,0.3,0.6,0.7,0.3L157,117c0.4-0.2,0.7-0.7,0.7-1.2
					C157.7,115.4,157.4,115.3,157,115.5z"/>
				<path class="st2" d="M137.5,96.7L83,128.1c-0.4,0.3-0.7,0.7-0.7,1.2c0,0.4,0.3,0.6,0.7,0.4l54.5-31.4c0.4-0.3,0.7-0.7,0.7-1.2
					C138.2,96.6,137.9,96.5,137.5,96.7z"/>
				<path class="st2" d="M156.8,151.6l-16.6,9.6c-0.4,0.2-0.7,0.7-0.7,1.1c0,0.4,0.3,0.6,0.7,0.4l16.6-9.6c0.4-0.3,0.7-0.7,0.7-1.1
					C157.5,151.6,157.2,151.4,156.8,151.6z"/>
				<path class="st2" d="M137.5,162.8L83,194.2c-0.4,0.3-0.7,0.7-0.7,1.1c0,0.4,0.3,0.6,0.7,0.4l54.5-31.4c0.4-0.3,0.7-0.7,0.7-1.1
					C138.2,162.7,137.9,162.6,137.5,162.8z"/>
				<path class="st2" d="M167.4,85.5l-13.7,7.9c-0.4,0.3-0.7,0.7-0.7,1.2c0,0.4,0.3,0.6,0.7,0.3l13.7-7.8c0.4-0.3,0.7-0.7,0.7-1.2
					C168.1,85.4,167.8,85.2,167.4,85.5z"/>
				<path class="st15" d="M167.4,85.5l-13.7,7.9c-0.4,0.3-0.7,0.7-0.7,1.2c0,0.4,0.3,0.6,0.7,0.3l13.7-7.8c0.4-0.3,0.7-0.7,0.7-1.2
					C168.1,85.4,167.8,85.2,167.4,85.5z"/>
				<path class="st2" d="M167.4,91.5l-6.4,3.7c-0.4,0.3-0.7,0.7-0.7,1.2c0,0.4,0.3,0.6,0.7,0.3l6.4-3.7c0.4-0.3,0.7-0.7,0.7-1.2
					C168.1,91.4,167.8,91.2,167.4,91.5z"/>
				<path class="st15" d="M167.4,91.5l-6.4,3.7c-0.4,0.3-0.7,0.7-0.7,1.2c0,0.4,0.3,0.6,0.7,0.3l6.4-3.7c0.4-0.3,0.7-0.7,0.7-1.2
					C168.1,91.4,167.8,91.2,167.4,91.5z"/>
				<path class="st2" d="M167.4,103.5l-6.4,3.7c-0.4,0.3-0.7,0.7-0.7,1.2c0,0.4,0.3,0.6,0.7,0.3l6.4-3.7c0.4-0.3,0.7-0.7,0.7-1.2
					C168.1,103.4,167.8,103.2,167.4,103.5z"/>
				<path class="st15" d="M167.4,103.5l-6.4,3.7c-0.4,0.3-0.7,0.7-0.7,1.2c0,0.4,0.3,0.6,0.7,0.3l6.4-3.7c0.4-0.3,0.7-0.7,0.7-1.2
					C168.1,103.4,167.8,103.2,167.4,103.5z"/>
				<path class="st2" d="M167.4,109.5l-6.4,3.7c-0.4,0.3-0.7,0.7-0.7,1.2c0,0.4,0.3,0.6,0.7,0.3l6.4-3.7c0.4-0.3,0.7-0.7,0.7-1.2
					C168.1,109.4,167.8,109.3,167.4,109.5z"/>
				<path class="st15" d="M167.4,109.5l-6.4,3.7c-0.4,0.3-0.7,0.7-0.7,1.2c0,0.4,0.3,0.6,0.7,0.3l6.4-3.7c0.4-0.3,0.7-0.7,0.7-1.2
					C168.1,109.4,167.8,109.3,167.4,109.5z"/>
				<path class="st2" d="M151,94.9l-8.2,4.8c-0.4,0.2-0.7,0.7-0.7,1.2c0,0.4,0.3,0.6,0.7,0.3l8.2-4.8c0.4-0.3,0.7-0.7,0.7-1.2
					C151.7,94.8,151.4,94.7,151,94.9z"/>
				<path class="st15" d="M151,94.9l-8.2,4.8c-0.4,0.2-0.7,0.7-0.7,1.2c0,0.4,0.3,0.6,0.7,0.3l8.2-4.8c0.4-0.3,0.7-0.7,0.7-1.2
					C151.7,94.8,151.4,94.7,151,94.9z"/>
				<path class="st11" d="M138.3,138.3L83,170.2c-0.4,0.3-0.7,0.7-0.7,1.1c0,0.4,0.3,0.6,0.7,0.4l55.3-31.9c0.4-0.2,0.7-0.7,0.7-1.1
					C139,138.3,138.7,138.1,138.3,138.3z"/>
				<path class="st11" d="M91.2,159.4l-8.2,4.8c-0.4,0.3-0.7,0.7-0.7,1.1c0,0.4,0.3,0.6,0.7,0.4l8.2-4.8c0.4-0.3,0.7-0.7,0.7-1.1
					C91.9,159.3,91.6,159.2,91.2,159.4z"/>
				<path class="st11" d="M149.2,126l-55.3,31.9c-0.4,0.3-0.7,0.7-0.7,1.2c0,0.4,0.3,0.6,0.7,0.4l55.3-31.9c0.4-0.3,0.7-0.7,0.7-1.2
					C149.9,125.9,149.6,125.8,149.2,126z"/>
				<path class="st2" d="M157,97.5l-13.7,7.9c-0.4,0.2-0.7,0.7-0.7,1.2c0,0.4,0.3,0.6,0.7,0.3L157,99c0.4-0.2,0.7-0.7,0.7-1.2
					C157.7,97.4,157.4,97.2,157,97.5z"/>
				<path class="st15" d="M157,97.5l-13.7,7.9c-0.4,0.2-0.7,0.7-0.7,1.2c0,0.4,0.3,0.6,0.7,0.3L157,99c0.4-0.2,0.7-0.7,0.7-1.2
					C157.7,97.4,157.4,97.2,157,97.5z"/>
				<path class="st2" d="M140.6,106.9L83.4,140c-0.4,0.3-0.7,0.7-0.7,1.2c0,0.4,0.3,0.6,0.7,0.4l57.2-33.1c0.4-0.3,0.7-0.7,0.7-1.2
					C141.3,106.8,141,106.7,140.6,106.9z"/>
				<path class="st15" d="M140.6,106.9L83.4,140c-0.4,0.3-0.7,0.7-0.7,1.2c0,0.4,0.3,0.6,0.7,0.4l57.2-33.1c0.4-0.3,0.7-0.7,0.7-1.2
					C141.3,106.8,141,106.7,140.6,106.9z"/>
				<path class="st1" d="M157,133.6l-74,42.7c-0.4,0.3-0.7,0.7-0.7,1.1c0,0.4,0.3,0.6,0.7,0.4l74-42.7c0.4-0.2,0.7-0.7,0.7-1.1
					C157.7,133.6,157.4,133.4,157,133.6z"/>
				<path class="st2" d="M167.4,127.6l-6.4,3.7c-0.4,0.3-0.7,0.7-0.7,1.1c0,0.4,0.3,0.6,0.7,0.4l6.4-3.7c0.4-0.3,0.7-0.7,0.7-1.2
					C168.1,127.6,167.8,127.4,167.4,127.6z"/>
				<path class="st15" d="M167.4,127.6l-6.4,3.7c-0.4,0.3-0.7,0.7-0.7,1.1c0,0.4,0.3,0.6,0.7,0.4l6.4-3.7c0.4-0.3,0.7-0.7,0.7-1.2
					C168.1,127.6,167.8,127.4,167.4,127.6z"/>
				<path class="st1" d="M157,139.6l-74,42.7c-0.4,0.3-0.7,0.7-0.7,1.1c0,0.4,0.3,0.6,0.7,0.4l74-42.7c0.4-0.2,0.7-0.7,0.7-1.1
					C157.7,139.6,157.4,139.4,157,139.6z"/>
				<path class="st2" d="M167.4,133.6l-6.4,3.7c-0.4,0.3-0.7,0.7-0.7,1.1c0,0.4,0.3,0.6,0.7,0.4l6.4-3.7c0.4-0.3,0.7-0.7,0.7-1.1
					C168.1,133.6,167.8,133.4,167.4,133.6z"/>
				<path class="st15" d="M167.4,133.6l-6.4,3.7c-0.4,0.3-0.7,0.7-0.7,1.1c0,0.4,0.3,0.6,0.7,0.4l6.4-3.7c0.4-0.3,0.7-0.7,0.7-1.1
					C168.1,133.6,167.8,133.4,167.4,133.6z"/>
				<path class="st1" d="M157,145.6l-74,42.7c-0.4,0.3-0.7,0.7-0.7,1.1c0,0.4,0.3,0.6,0.7,0.4l74-42.7c0.4-0.2,0.7-0.7,0.7-1.1
					C157.7,145.6,157.4,145.4,157,145.6z"/>
				<path class="st2" d="M167.4,139.6l-6.4,3.7c-0.4,0.3-0.7,0.7-0.7,1.1c0,0.4,0.3,0.6,0.7,0.4l6.4-3.7c0.4-0.3,0.7-0.7,0.7-1.1
					C168.1,139.6,167.8,139.4,167.4,139.6z"/>
				<path class="st15" d="M167.4,139.6l-6.4,3.7c-0.4,0.3-0.7,0.7-0.7,1.1c0,0.4,0.3,0.6,0.7,0.4l6.4-3.7c0.4-0.3,0.7-0.7,0.7-1.1
					C168.1,139.6,167.8,139.4,167.4,139.6z"/>
				<g class="st16">
					<path class="st11" d="M177.4,73.4l-3.8,2.2c-0.4,0.3-0.7,0.7-0.7,1.2v1.4c0,0.4,0.3,0.6,0.7,0.4l3.8-2.2
						c0.4-0.3,0.7-0.7,0.7-1.2v-1.4C178.1,73.4,177.8,73.2,177.4,73.4z"/>
					<path class="st11" d="M177.4,79.5l-3.8,2.2c-0.4,0.3-0.7,0.7-0.7,1.2v1.4c0,0.4,0.3,0.6,0.7,0.4l3.8-2.2
						c0.4-0.3,0.7-0.7,0.7-1.2v-1.4C178.1,79.4,177.8,79.3,177.4,79.5z"/>
					<path class="st11" d="M177.4,85.5l-3.8,2.2c-0.4,0.3-0.7,0.7-0.7,1.2v1.4c0,0.4,0.3,0.6,0.7,0.4l3.8-2.2
						c0.4-0.3,0.7-0.7,0.7-1.2v-1.4C178.1,85.5,177.8,85.3,177.4,85.5z"/>
					<path class="st11" d="M177.4,91.6l-3.8,2.2c-0.4,0.3-0.7,0.7-0.7,1.2v1.4c0,0.4,0.3,0.6,0.7,0.4l3.8-2.2
						c0.4-0.3,0.7-0.7,0.7-1.2V92C178.1,91.6,177.8,91.4,177.4,91.6z"/>
					<path class="st11" d="M177.4,97.7l-3.8,2.2c-0.4,0.3-0.7,0.7-0.7,1.2v1.4c0,0.4,0.3,0.6,0.7,0.4l3.8-2.2
						c0.4-0.3,0.7-0.7,0.7-1.2v-1.4C178.1,97.6,177.8,97.4,177.4,97.7z"/>
					<path class="st11" d="M177.4,103.7l-3.8,2.2c-0.4,0.3-0.7,0.7-0.7,1.2v1.4c0,0.4,0.3,0.6,0.7,0.4l3.8-2.2
						c0.4-0.3,0.7-0.7,0.7-1.2v-1.4C178.1,103.7,177.8,103.5,177.4,103.7z"/>
					<path class="st11" d="M177.4,109.8l-3.8,2.2c-0.4,0.3-0.7,0.7-0.7,1.2v1.4c0,0.4,0.3,0.6,0.7,0.4l3.8-2.2
						c0.4-0.3,0.7-0.7,0.7-1.2v-1.4C178.1,109.8,177.8,109.6,177.4,109.8z"/>
					<path class="st11" d="M177.4,115.9l-3.8,2.2c-0.4,0.3-0.7,0.7-0.7,1.2v1.4c0,0.4,0.3,0.6,0.7,0.4l3.8-2.2
						c0.4-0.3,0.7-0.7,0.7-1.2v-1.4C178.1,115.8,177.8,115.7,177.4,115.9z"/>
					<path class="st11" d="M177.4,121.9l-3.8,2.2c-0.4,0.3-0.7,0.7-0.7,1.2v1.4c0,0.4,0.3,0.6,0.7,0.4l3.8-2.2
						c0.4-0.3,0.7-0.7,0.7-1.2v-1.4C178.1,121.9,177.8,121.7,177.4,121.9z"/>
					<path class="st11" d="M177.4,128l-3.8,2.2c-0.4,0.3-0.7,0.7-0.7,1.2v1.4c0,0.4,0.3,0.6,0.7,0.4l3.8-2.1
						c0.4-0.3,0.7-0.7,0.7-1.2v-1.4C178.1,128,177.8,127.8,177.4,128z"/>
					<path class="st11" d="M177.4,134.1l-3.8,2.2c-0.4,0.3-0.7,0.7-0.7,1.2v1.4c0,0.4,0.3,0.6,0.7,0.4l3.8-2.2
						c0.4-0.3,0.7-0.7,0.7-1.2v-1.4C178.1,134,177.8,133.8,177.4,134.1z"/>
					<path class="st11" d="M177.4,140.1l-3.8,2.2c-0.4,0.3-0.7,0.7-0.7,1.2v1.4c0,0.4,0.3,0.6,0.7,0.4l3.8-2.2
						c0.4-0.3,0.7-0.7,0.7-1.2v-1.4C178.1,140.1,177.8,139.9,177.4,140.1z"/>
				</g>
				<path class="st2" d="M202.4,53.7L182,65.5c-0.8,0.5-1.3,1.4-1.4,2.4v23.6c0,0.9,0.6,1.2,1.4,0.8l20.4-11.8
					c0.8-0.5,1.3-1.4,1.4-2.4V54.5C203.8,53.6,203.2,53.3,202.4,53.7z"/>
				<path class="st2" d="M200.5,77.1l-1.9,1.1c-0.4,0.3-0.7,0.7-0.7,1.2c0,0.4,0.3,0.6,0.7,0.3l1.9-1.1c0.4-0.3,0.7-0.7,0.7-1.2
					C201.2,77,200.9,76.8,200.5,77.1z"/>
				<path class="st15" d="M200.5,77.1l-1.9,1.1c-0.4,0.3-0.7,0.7-0.7,1.2c0,0.4,0.3,0.6,0.7,0.3l1.9-1.1c0.4-0.3,0.7-0.7,0.7-1.2
					C201.2,77,200.9,76.8,200.5,77.1z"/>
				<path class="st2" d="M200.5,57.8l-1.9,1.1c-0.4,0.3-0.7,0.7-0.7,1.2c0,0.4,0.3,0.6,0.7,0.3l1.9-1.1c0.4-0.3,0.7-0.7,0.7-1.2
					C201.2,57.7,200.9,57.5,200.5,57.8z"/>
				<path class="st15" d="M200.5,57.8l-1.9,1.1c-0.4,0.3-0.7,0.7-0.7,1.2c0,0.4,0.3,0.6,0.7,0.3l1.9-1.1c0.4-0.3,0.7-0.7,0.7-1.2
					C201.2,57.7,200.9,57.5,200.5,57.8z"/>
				<path class="st2" d="M197.9,63.2l-1.9,1.1c-0.4,0.3-0.7,0.7-0.7,1.2c0,0.4,0.3,0.6,0.7,0.3l1.9-1.1c0.4-0.3,0.7-0.7,0.7-1.2
					C198.6,63.1,198.3,62.9,197.9,63.2z"/>
				<path class="st15" d="M197.9,63.2l-1.9,1.1c-0.4,0.3-0.7,0.7-0.7,1.2c0,0.4,0.3,0.6,0.7,0.3l1.9-1.1c0.4-0.3,0.7-0.7,0.7-1.2
					C198.6,63.1,198.3,62.9,197.9,63.2z"/>
				<path class="st2" d="M197.9,67l-1.9,1.1c-0.4,0.3-0.7,0.7-0.7,1.2c0,0.4,0.3,0.6,0.7,0.3l1.9-1.1c0.4-0.3,0.7-0.7,0.7-1.2
					C198.6,66.9,198.3,66.8,197.9,67z"/>
				<path class="st15" d="M197.9,67l-1.9,1.1c-0.4,0.3-0.7,0.7-0.7,1.2c0,0.4,0.3,0.6,0.7,0.3l1.9-1.1c0.4-0.3,0.7-0.7,0.7-1.2
					C198.6,66.9,198.3,66.8,197.9,67z"/>
				<path class="st2" d="M200.5,69.3l-1.9,1.1c-0.4,0.3-0.7,0.7-0.7,1.2c0,0.4,0.3,0.6,0.7,0.3l1.9-1.1c0.4-0.3,0.7-0.7,0.7-1.2
					C201.2,69.3,200.9,69.1,200.5,69.3z"/>
				<path class="st15" d="M200.5,69.3l-1.9,1.1c-0.4,0.3-0.7,0.7-0.7,1.2c0,0.4,0.3,0.6,0.7,0.3l1.9-1.1c0.4-0.3,0.7-0.7,0.7-1.2
					C201.2,69.3,200.9,69.1,200.5,69.3z"/>
				<path class="st2" d="M197.9,74.7l-1.9,1.1c-0.4,0.3-0.7,0.7-0.7,1.2c0,0.4,0.3,0.6,0.7,0.3l1.9-1.1c0.4-0.3,0.7-0.7,0.7-1.2
					C198.6,74.7,198.3,74.5,197.9,74.7z"/>
				<path class="st15" d="M197.9,74.7l-1.9,1.1c-0.4,0.3-0.7,0.7-0.7,1.2c0,0.4,0.3,0.6,0.7,0.3l1.9-1.1c0.4-0.3,0.7-0.7,0.7-1.2
					C198.6,74.7,198.3,74.5,197.9,74.7z"/>
				<path class="st2" d="M195.4,60.7l-11.5,6.6c-0.4,0.2-0.7,0.7-0.7,1.2c0,0.4,0.3,0.6,0.7,0.3l11.5-6.6c0.4-0.3,0.7-0.7,0.7-1.2
					C196.1,60.7,195.8,60.5,195.4,60.7z"/>
				<path class="st17" d="M195.4,60.7l-11.5,6.6c-0.4,0.2-0.7,0.7-0.7,1.2c0,0.4,0.3,0.6,0.7,0.3l11.5-6.6c0.4-0.3,0.7-0.7,0.7-1.2
					C196.1,60.7,195.8,60.5,195.4,60.7z"/>
				<path class="st2" d="M195.4,80l-11.5,6.6c-0.4,0.2-0.7,0.7-0.7,1.2c0,0.4,0.3,0.6,0.7,0.3l11.5-6.6c0.4-0.3,0.7-0.7,0.7-1.2
					C196.1,80,195.8,79.8,195.4,80z"/>
				<path class="st17" d="M195.4,80l-11.5,6.6c-0.4,0.2-0.7,0.7-0.7,1.2c0,0.4,0.3,0.6,0.7,0.3l11.5-6.6c0.4-0.3,0.7-0.7,0.7-1.2
					C196.1,80,195.8,79.8,195.4,80z"/>
				<path class="st2" d="M192.7,66.1l-8.8,5.1c-0.4,0.3-0.7,0.7-0.7,1.2c0,0.4,0.3,0.6,0.7,0.3l8.8-5.1c0.4-0.2,0.7-0.7,0.7-1.2
					C193.5,66.1,193.1,65.9,192.7,66.1z"/>
				<path class="st17" d="M192.7,66.1l-8.8,5.1c-0.4,0.3-0.7,0.7-0.7,1.2c0,0.4,0.3,0.6,0.7,0.3l8.8-5.1c0.4-0.2,0.7-0.7,0.7-1.2
					C193.5,66.1,193.1,65.9,192.7,66.1z"/>
				<path class="st2" d="M192.7,70l-8.8,5.1c-0.4,0.2-0.7,0.7-0.7,1.2c0,0.4,0.3,0.6,0.7,0.3l8.8-5.1c0.4-0.2,0.7-0.7,0.7-1.2
					C193.5,69.9,193.1,69.8,192.7,70z"/>
				<path class="st17" d="M192.7,70l-8.8,5.1c-0.4,0.2-0.7,0.7-0.7,1.2c0,0.4,0.3,0.6,0.7,0.3l8.8-5.1c0.4-0.2,0.7-0.7,0.7-1.2
					C193.5,69.9,193.1,69.8,192.7,70z"/>
				<path class="st2" d="M195.4,72.3l-11.5,6.6c-0.4,0.2-0.7,0.7-0.7,1.2c0,0.4,0.3,0.6,0.7,0.3l11.5-6.6c0.4-0.2,0.7-0.7,0.7-1.2
					C196.1,72.2,195.8,72.1,195.4,72.3z"/>
				<path class="st17" d="M195.4,72.3l-11.5,6.6c-0.4,0.2-0.7,0.7-0.7,1.2c0,0.4,0.3,0.6,0.7,0.3l11.5-6.6c0.4-0.2,0.7-0.7,0.7-1.2
					C196.1,72.2,195.8,72.1,195.4,72.3z"/>
				<path class="st2" d="M192.7,77.7l-8.8,5.1c-0.4,0.2-0.7,0.7-0.7,1.2c0,0.4,0.3,0.6,0.7,0.3l8.8-5.1c0.4-0.2,0.7-0.7,0.7-1.2
					C193.5,77.6,193.1,77.5,192.7,77.7z"/>
				<path class="st17" d="M192.7,77.7l-8.8,5.1c-0.4,0.2-0.7,0.7-0.7,1.2c0,0.4,0.3,0.6,0.7,0.3l8.8-5.1c0.4-0.2,0.7-0.7,0.7-1.2
					C193.5,77.6,193.1,77.5,192.7,77.7z"/>
				<path class="st2" d="M202.4,84.9L182,96.6c-0.8,0.5-1.3,1.4-1.4,2.4v46.5c0,0.9,0.6,1.2,1.4,0.8l20.4-11.8
					c0.8-0.5,1.3-1.4,1.4-2.4V85.7C203.8,84.8,203.2,84.4,202.4,84.9z"/>
				<path class="st2" d="M200.5,88.9l-1.9,1.1c-0.4,0.3-0.7,0.7-0.7,1.2c0,0.4,0.3,0.6,0.7,0.3l1.9-1.1c0.4-0.3,0.7-0.7,0.7-1.2
					C201.2,88.9,200.9,88.7,200.5,88.9z"/>
				<path class="st15" d="M200.5,88.9l-1.9,1.1c-0.4,0.3-0.7,0.7-0.7,1.2c0,0.4,0.3,0.6,0.7,0.3l1.9-1.1c0.4-0.3,0.7-0.7,0.7-1.2
					C201.2,88.9,200.9,88.7,200.5,88.9z"/>
				<path class="st2" d="M197.9,94.3l-1.9,1.1c-0.4,0.3-0.7,0.7-0.7,1.2c0,0.4,0.3,0.6,0.7,0.3l1.9-1.1c0.4-0.3,0.7-0.7,0.7-1.2
					C198.6,94.2,198.3,94.1,197.9,94.3z"/>
				<path class="st15" d="M197.9,94.3l-1.9,1.1c-0.4,0.3-0.7,0.7-0.7,1.2c0,0.4,0.3,0.6,0.7,0.3l1.9-1.1c0.4-0.3,0.7-0.7,0.7-1.2
					C198.6,94.2,198.3,94.1,197.9,94.3z"/>
				<path class="st2" d="M197.9,98.2l-1.9,1.1c-0.4,0.3-0.7,0.7-0.7,1.2c0,0.4,0.3,0.6,0.7,0.3l1.9-1.1c0.4-0.3,0.7-0.7,0.7-1.2
					C198.6,98.1,198.3,97.9,197.9,98.2z"/>
				<path class="st15" d="M197.9,98.2l-1.9,1.1c-0.4,0.3-0.7,0.7-0.7,1.2c0,0.4,0.3,0.6,0.7,0.3l1.9-1.1c0.4-0.3,0.7-0.7,0.7-1.2
					C198.6,98.1,198.3,97.9,197.9,98.2z"/>
				<path class="st2" d="M200.5,100.5l-1.9,1.1c-0.4,0.3-0.7,0.7-0.7,1.2c0,0.4,0.3,0.6,0.7,0.3l1.9-1.1c0.4-0.3,0.7-0.7,0.7-1.2
					C201.2,100.4,200.9,100.3,200.5,100.5z"/>
				<path class="st15" d="M200.5,100.5l-1.9,1.1c-0.4,0.3-0.7,0.7-0.7,1.2c0,0.4,0.3,0.6,0.7,0.3l1.9-1.1c0.4-0.3,0.7-0.7,0.7-1.2
					C201.2,100.4,200.9,100.3,200.5,100.5z"/>
				<path class="st2" d="M195.4,91.9l-11.5,6.6c-0.4,0.2-0.7,0.7-0.7,1.2c0,0.4,0.3,0.6,0.7,0.3l11.5-6.6c0.4-0.2,0.7-0.7,0.7-1.2
					C196.1,91.8,195.8,91.7,195.4,91.9z"/>
				<path class="st17" d="M195.4,91.9l-11.5,6.6c-0.4,0.2-0.7,0.7-0.7,1.2c0,0.4,0.3,0.6,0.7,0.3l11.5-6.6c0.4-0.2,0.7-0.7,0.7-1.2
					C196.1,91.8,195.8,91.7,195.4,91.9z"/>
				<path class="st2" d="M192.7,97.3l-8.8,5.1c-0.4,0.2-0.7,0.7-0.7,1.2c0,0.4,0.3,0.6,0.7,0.3l8.8-5.1c0.4-0.2,0.7-0.7,0.7-1.2
					C193.5,97.2,193.1,97.1,192.7,97.3z"/>
				<path class="st17" d="M192.7,97.3l-8.8,5.1c-0.4,0.2-0.7,0.7-0.7,1.2c0,0.4,0.3,0.6,0.7,0.3l8.8-5.1c0.4-0.2,0.7-0.7,0.7-1.2
					C193.5,97.2,193.1,97.1,192.7,97.3z"/>
				<path class="st2" d="M192.7,101.1l-8.8,5.1c-0.4,0.2-0.7,0.7-0.7,1.2c0,0.4,0.3,0.6,0.7,0.4l8.8-5.1c0.4-0.2,0.7-0.7,0.7-1.2
					C193.5,101.1,193.1,100.9,192.7,101.1z"/>
				<path class="st17" d="M192.7,101.1l-8.8,5.1c-0.4,0.2-0.7,0.7-0.7,1.2c0,0.4,0.3,0.6,0.7,0.4l8.8-5.1c0.4-0.2,0.7-0.7,0.7-1.2
					C193.5,101.1,193.1,100.9,192.7,101.1z"/>
				<path class="st2" d="M195.4,103.5l-11.5,6.6c-0.4,0.2-0.7,0.7-0.7,1.2c0,0.4,0.3,0.6,0.7,0.3l11.5-6.6c0.4-0.2,0.7-0.7,0.7-1.2
					C196.1,103.4,195.8,103.2,195.4,103.5z"/>
				<path class="st17" d="M195.4,103.5l-11.5,6.6c-0.4,0.2-0.7,0.7-0.7,1.2c0,0.4,0.3,0.6,0.7,0.3l11.5-6.6c0.4-0.2,0.7-0.7,0.7-1.2
					C196.1,103.4,195.8,103.2,195.4,103.5z"/>
				<path class="st2" d="M197.9,105.9L196,107c-0.4,0.3-0.7,0.7-0.7,1.2c0,0.4,0.3,0.6,0.7,0.3l1.9-1.1c0.4-0.3,0.7-0.7,0.7-1.2
					C198.6,105.8,198.3,105.7,197.9,105.9z"/>
				<path class="st15" d="M197.9,105.9L196,107c-0.4,0.3-0.7,0.7-0.7,1.2c0,0.4,0.3,0.6,0.7,0.3l1.9-1.1c0.4-0.3,0.7-0.7,0.7-1.2
					C198.6,105.8,198.3,105.7,197.9,105.9z"/>
				<path class="st2" d="M197.9,109.7l-1.9,1.1c-0.4,0.3-0.7,0.7-0.7,1.2c0,0.4,0.3,0.6,0.7,0.3l1.9-1.1c0.4-0.3,0.7-0.7,0.7-1.2
					C198.6,109.7,198.3,109.5,197.9,109.7z"/>
				<path class="st15" d="M197.9,109.7l-1.9,1.1c-0.4,0.3-0.7,0.7-0.7,1.2c0,0.4,0.3,0.6,0.7,0.3l1.9-1.1c0.4-0.3,0.7-0.7,0.7-1.2
					C198.6,109.7,198.3,109.5,197.9,109.7z"/>
				<path class="st2" d="M192.7,108.9l-8.8,5.1c-0.4,0.2-0.7,0.7-0.7,1.2c0,0.4,0.3,0.6,0.7,0.3l8.8-5.1c0.4-0.2,0.7-0.7,0.7-1.2
					C193.5,108.8,193.1,108.6,192.7,108.9z"/>
				<path class="st17" d="M192.7,108.9l-8.8,5.1c-0.4,0.2-0.7,0.7-0.7,1.2c0,0.4,0.3,0.6,0.7,0.3l8.8-5.1c0.4-0.2,0.7-0.7,0.7-1.2
					C193.5,108.8,193.1,108.6,192.7,108.9z"/>
				<path class="st2" d="M192.7,112.7l-8.8,5.1c-0.4,0.2-0.7,0.7-0.7,1.2c0,0.4,0.3,0.6,0.7,0.3l8.8-5.1c0.4-0.2,0.7-0.7,0.7-1.2
					C193.5,112.7,193.1,112.5,192.7,112.7z"/>
				<path class="st17" d="M192.7,112.7l-8.8,5.1c-0.4,0.2-0.7,0.7-0.7,1.2c0,0.4,0.3,0.6,0.7,0.3l8.8-5.1c0.4-0.2,0.7-0.7,0.7-1.2
					C193.5,112.7,193.1,112.5,192.7,112.7z"/>
				<path class="st2" d="M200.5,119.8l-1.9,1.1c-0.4,0.3-0.7,0.7-0.7,1.2c0,0.4,0.3,0.6,0.7,0.3l1.9-1.1c0.4-0.3,0.7-0.7,0.7-1.2
					C201.2,119.8,200.9,119.6,200.5,119.8z"/>
				<path class="st15" d="M200.5,119.8l-1.9,1.1c-0.4,0.3-0.7,0.7-0.7,1.2c0,0.4,0.3,0.6,0.7,0.3l1.9-1.1c0.4-0.3,0.7-0.7,0.7-1.2
					C201.2,119.8,200.9,119.6,200.5,119.8z"/>
				<path class="st2" d="M195.4,122.8l-11.5,6.6c-0.4,0.2-0.7,0.7-0.7,1.1c0,0.4,0.3,0.6,0.7,0.4l11.5-6.6c0.4-0.2,0.7-0.7,0.7-1.2
					C196.1,122.7,195.8,122.6,195.4,122.8z"/>
				<path class="st17" d="M195.4,122.8l-11.5,6.6c-0.4,0.2-0.7,0.7-0.7,1.1c0,0.4,0.3,0.6,0.7,0.4l11.5-6.6c0.4-0.2,0.7-0.7,0.7-1.2
					C196.1,122.7,195.8,122.6,195.4,122.8z"/>
				<path class="st2" d="M197.9,125.2l-1.9,1.1c-0.4,0.3-0.7,0.7-0.7,1.2c0,0.4,0.3,0.6,0.7,0.3l1.9-1.1c0.4-0.3,0.7-0.7,0.7-1.2
					C198.6,125.2,198.3,125,197.9,125.2z"/>
				<path class="st15" d="M197.9,125.2l-1.9,1.1c-0.4,0.3-0.7,0.7-0.7,1.2c0,0.4,0.3,0.6,0.7,0.3l1.9-1.1c0.4-0.3,0.7-0.7,0.7-1.2
					C198.6,125.2,198.3,125,197.9,125.2z"/>
				<path class="st2" d="M197.9,129.1l-1.9,1.1c-0.4,0.3-0.7,0.7-0.7,1.2c0,0.4,0.3,0.6,0.7,0.4l1.9-1.1c0.4-0.3,0.7-0.7,0.7-1.1
					C198.6,129,198.3,128.9,197.9,129.1z"/>
				<path class="st15" d="M197.9,129.1l-1.9,1.1c-0.4,0.3-0.7,0.7-0.7,1.2c0,0.4,0.3,0.6,0.7,0.4l1.9-1.1c0.4-0.3,0.7-0.7,0.7-1.1
					C198.6,129,198.3,128.9,197.9,129.1z"/>
				<path class="st2" d="M192.7,128.2l-8.8,5.1c-0.4,0.2-0.7,0.7-0.7,1.1c0,0.4,0.3,0.6,0.7,0.4l8.8-5.1c0.4-0.2,0.7-0.7,0.7-1.1
					C193.5,128.1,193.1,128,192.7,128.2z"/>
				<path class="st17" d="M192.7,128.2l-8.8,5.1c-0.4,0.2-0.7,0.7-0.7,1.1c0,0.4,0.3,0.6,0.7,0.4l8.8-5.1c0.4-0.2,0.7-0.7,0.7-1.1
					C193.5,128.1,193.1,128,192.7,128.2z"/>
				<path class="st2" d="M192.7,132.1l-8.8,5.1c-0.4,0.2-0.7,0.7-0.7,1.1c0,0.4,0.3,0.6,0.7,0.4l8.8-5.1c0.4-0.2,0.7-0.7,0.7-1.1
					C193.5,132,193.1,131.8,192.7,132.1z"/>
				<path class="st17" d="M192.7,132.1l-8.8,5.1c-0.4,0.2-0.7,0.7-0.7,1.1c0,0.4,0.3,0.6,0.7,0.4l8.8-5.1c0.4-0.2,0.7-0.7,0.7-1.1
					C193.5,132,193.1,131.8,192.7,132.1z"/>
				<path class="st2" d="M197.9,113.6l-1.9,1.1c-0.4,0.3-0.7,0.7-0.7,1.2c0,0.4,0.3,0.6,0.7,0.3l1.9-1.1c0.4-0.3,0.7-0.7,0.7-1.2
					C198.6,113.5,198.3,113.3,197.9,113.6z"/>
				<path class="st15" d="M197.9,113.6l-1.9,1.1c-0.4,0.3-0.7,0.7-0.7,1.2c0,0.4,0.3,0.6,0.7,0.3l1.9-1.1c0.4-0.3,0.7-0.7,0.7-1.2
					C198.6,113.5,198.3,113.3,197.9,113.6z"/>
				<path class="st2" d="M200.5,115.9l-1.9,1.1c-0.4,0.3-0.7,0.7-0.7,1.2c0,0.4,0.3,0.6,0.7,0.3l1.9-1.1c0.4-0.3,0.7-0.7,0.7-1.2
					C201.2,115.9,200.9,115.7,200.5,115.9z"/>
				<path class="st15" d="M200.5,115.9l-1.9,1.1c-0.4,0.3-0.7,0.7-0.7,1.2c0,0.4,0.3,0.6,0.7,0.3l1.9-1.1c0.4-0.3,0.7-0.7,0.7-1.2
					C201.2,115.9,200.9,115.7,200.5,115.9z"/>
				<path class="st2" d="M192.7,116.6l-8.8,5.1c-0.4,0.2-0.7,0.7-0.7,1.2c0,0.4,0.3,0.6,0.7,0.3l8.8-5.1c0.4-0.2,0.7-0.7,0.7-1.2
					C193.5,116.5,193.1,116.3,192.7,116.6z"/>
				<path class="st17" d="M192.7,116.6l-8.8,5.1c-0.4,0.2-0.7,0.7-0.7,1.2c0,0.4,0.3,0.6,0.7,0.3l8.8-5.1c0.4-0.2,0.7-0.7,0.7-1.2
					C193.5,116.5,193.1,116.3,192.7,116.6z"/>
				<path class="st2" d="M195.4,118.9l-11.5,6.6c-0.4,0.2-0.7,0.7-0.7,1.2c0,0.4,0.3,0.6,0.7,0.3l11.5-6.6c0.4-0.3,0.7-0.7,0.7-1.2
					C196.1,118.8,195.8,118.7,195.4,118.9z"/>
				<path class="st17" d="M195.4,118.9l-11.5,6.6c-0.4,0.2-0.7,0.7-0.7,1.2c0,0.4,0.3,0.6,0.7,0.3l11.5-6.6c0.4-0.3,0.7-0.7,0.7-1.2
					C196.1,118.8,195.8,118.7,195.4,118.9z"/>
				<path class="st2" d="M200.5,131.5l-1.9,1.1c-0.4,0.3-0.7,0.7-0.7,1.1c0,0.4,0.3,0.6,0.7,0.4l1.9-1.1c0.4-0.3,0.7-0.7,0.7-1.1
					C201.2,131.4,200.9,131.3,200.5,131.5z"/>
				<path class="st15" d="M200.5,131.5l-1.9,1.1c-0.4,0.3-0.7,0.7-0.7,1.1c0,0.4,0.3,0.6,0.7,0.4l1.9-1.1c0.4-0.3,0.7-0.7,0.7-1.1
					C201.2,131.4,200.9,131.3,200.5,131.5z"/>
				<path class="st2" d="M195.4,134.5l-11.5,6.6c-0.4,0.2-0.7,0.7-0.7,1.1c0,0.4,0.3,0.6,0.7,0.4l11.5-6.6c0.4-0.2,0.7-0.7,0.7-1.1
					C196.1,134.4,195.8,134.2,195.4,134.5z"/>
				<path class="st17" d="M195.4,134.5l-11.5,6.6c-0.4,0.2-0.7,0.7-0.7,1.1c0,0.4,0.3,0.6,0.7,0.4l11.5-6.6c0.4-0.2,0.7-0.7,0.7-1.1
					C196.1,134.4,195.8,134.2,195.4,134.5z"/>
			</g>
		</g>
		<g id="freepik--window--inject-4_1_">
			<g class="st18">
				<path class="st3" d="M88.9,150.3v76.4c-0.1,1.1-0.7,2.1-1.6,2.8l-43.9,25.3c-0.2,0.1-0.3,0.1-0.5,0.1h-0.2h-0.1h-0.1l-0.1-0.1
					l-0.1-0.1c-0.1-0.1-0.2-0.3-0.3-0.4c-0.1-0.3-0.2-0.5-0.2-0.8v-76c0.1-1.1,0.7-2.1,1.6-2.8l43.9-25.3c0.3-0.2,0.7-0.3,1.1-0.1
					l0.1,0.1l0,0l0.1,0.1c0,0,0,0,0,0.1c0,0,0,0.1,0,0.1c0,0.1,0.1,0.1,0.1,0.2c0,0,0,0.1,0,0.1l0,0v0.1
					C88.9,150.2,88.9,150.2,88.9,150.3z"/>
			</g>
			<path class="st2" d="M88.4,149.2c-0.4-0.1-0.8-0.1-1.1,0.1l-43.9,25.3c-0.9,0.6-1.5,1.6-1.6,2.8v5.2l-2.5-1.5V176
				c0.1-1.1,0.7-2.1,1.6-2.7L84.8,148c0.3-0.2,0.8-0.3,1.1-0.1C86.3,148,88.1,149.1,88.4,149.2z"/>
			<path class="st2" d="M88.9,150.3c0-1-0.7-1.4-1.6-0.9l-43.9,25.3c-0.9,0.6-1.5,1.6-1.6,2.8v5.2l47-27.1L88.9,150.3z"/>
			<g class="st13">
				<path class="st11" d="M87.4,149.4l-43.9,25.3c-0.5,0.3-0.9,0.7-1.1,1.2l-2.5-1.4c0.3-0.5,0.6-0.9,1.1-1.1L84.8,148
					c0.3-0.2,0.8-0.3,1.1-0.1c0.3,0.2,2.1,1.2,2.4,1.4C88.1,149.1,87.7,149.2,87.4,149.4z"/>
			</g>
			<path class="st7" d="M39.4,181.1V176c0-0.6,0.2-1.1,0.5-1.6l2.5,1.4c-0.3,0.5-0.5,1-0.5,1.6v5.2L39.4,181.1z"/>
			<path class="st3" d="M44.2,176.8c-0.6,0.5-0.9,1.2-0.9,1.9c0,0.8,0.4,1.1,0.9,0.9c0.6-0.5,0.9-1.2,0.9-1.9
				C45.1,176.9,44.7,176.5,44.2,176.8z"/>
			<path class="st3" d="M47.4,174.9c-0.6,0.5-0.9,1.2-0.9,1.9c0,0.8,0.4,1.1,0.9,0.9c0.6-0.5,0.9-1.2,0.9-1.9
				C48.3,175,47.9,174.6,47.4,174.9z"/>
			<path class="st3" d="M50.6,173.1c-0.6,0.5-0.9,1.2-0.9,1.9c0,0.8,0.4,1.1,0.9,0.9c0.6-0.5,0.9-1.2,0.9-1.9
				C51.5,173.2,51.1,172.8,50.6,173.1z"/>
			<g class="st19">
				<path class="st2" d="M42.5,254.7l-0.2-0.1l-0.5-0.3l0,0c-0.1-0.1-0.2-0.1-0.3-0.1l0,0l-0.4-0.2l-0.9-0.5l-0.2-0.1
					c-0.1-0.1-0.2-0.1-0.3-0.2c-0.1-0.1-0.2-0.2-0.2-0.3c-0.1-0.3-0.2-0.5-0.2-0.8v-70.9l2.5,1.5v70.8c0,0.3,0.1,0.5,0.2,0.8
					c0.1,0.2,0.2,0.3,0.3,0.4C42.4,254.7,42.4,254.7,42.5,254.7L42.5,254.7z"/>
			</g>
			<path class="st2" d="M85.3,164.2c0-0.1,0-0.1-0.1-0.2l-1.1-1c0,0,0,0,0,0l0,0c0,0-0.1,0.1-0.1,0.1c0,0.1,0,0.1,0,0.2v0.8
				c0,0.1,0,0.1,0,0.2c0,0,0,0.1,0.1,0.1l0.6,0.6l-0.6,1.2c0,0.1-0.1,0.1-0.1,0.2c0,0.1,0,0.2,0,0.2v0.8c0,0.1,0,0.1,0,0.1
				c0,0,0.1,0,0.1,0l0,0l0-0.1l1.1-2.4c0-0.1,0.1-0.2,0.1-0.3V164.2z"/>
			<path class="st2" d="M81.1,163.1c0-0.1,0-0.1-0.1-0.1c0,0-0.1,0-0.2,0l-0.4,0.2c0,0-0.1,0.1-0.1,0.1c0,0.1,0,0.1,0,0.2
				c0,0,0,0,0,0.1l2,6.1c0,0.1,0,0.1,0.1,0.1c0,0,0.1,0,0.2,0l0.4-0.2c0,0,0.1-0.1,0.1-0.1c0-0.1,0-0.1,0-0.2c0,0,0-0.1,0-0.1
				L81.1,163.1z"/>
			<path class="st2" d="M78.1,169c0,0.1,0,0.2,0.1,0.2l1.1,1c0,0,0,0,0.1,0l0,0c0,0,0.1-0.1,0.1-0.1c0-0.1,0-0.1,0-0.2v-0.8
				c0-0.1,0-0.1,0-0.2c0,0,0-0.1-0.1-0.1l-0.6-0.6l0.6-1.2c0-0.1,0.1-0.1,0.1-0.2c0-0.1,0-0.2,0-0.2v-0.8c0,0,0-0.1,0-0.1
				c0,0,0,0-0.1,0l0,0c0,0,0,0-0.1,0.1l-1.1,2.4c0,0.1-0.1,0.2-0.1,0.3V169z"/>
			<path class="st2" d="M74.9,172.1c0,0-0.1,0.1-0.1,0.1c0,0.1,0,0.1,0,0.2v0.9c0,0,0,0.1,0,0.1c0,0,0.1,0,0.1,0l0.5-0.3
				c0,0,0.1-0.1,0.1-0.1c0-0.1,0-0.1,0-0.2V172c0,0,0-0.1,0-0.1c0,0-0.1,0-0.1,0L74.9,172.1z"/>
			<path class="st2" d="M73.1,173.1c0,0-0.1,0.1-0.1,0.1c0,0.1,0,0.1,0,0.2v0.9c0,0,0,0.1,0,0.1c0,0,0.1,0,0.1,0l0.5-0.3
				c0,0,0.1-0.1,0.1-0.1c0-0.1,0-0.1,0-0.2V173c0-0.1,0-0.1,0-0.1c0,0-0.1,0-0.1,0L73.1,173.1z"/>
			<path class="st2" d="M71.3,174.2c-0.1,0-0.1,0.1-0.1,0.1c0,0.1,0,0.1,0,0.2v0.9c0,0,0,0.1,0,0.1c0,0,0.1,0,0.1,0l0.5-0.3
				c0,0,0.1-0.1,0.1-0.1c0-0.1,0-0.1,0-0.2V174c0-0.1,0-0.1,0-0.1c0,0-0.1,0-0.1,0L71.3,174.2z"/>
			<path class="st2" d="M84.8,171.2l-26.4,15.2c-0.3,0.2-0.5,0.6-0.6,0.9c0,0.3,0.2,0.5,0.6,0.3l26.4-15.2c0.3-0.2,0.5-0.5,0.6-0.9
				C85.4,171.1,85.1,171,84.8,171.2z"/>
			<path class="st1" d="M76.4,190.7L50,205.9c-0.3,0.2-0.5,0.5-0.6,0.9c0,0.3,0.2,0.5,0.6,0.3l26.4-15.2c0.3-0.2,0.5-0.6,0.6-0.9
				C76.9,190.6,76.7,190.5,76.4,190.7z"/>
			<path class="st1" d="M76.4,200.5l-12.6,7.3c-0.3,0.2-0.5,0.6-0.6,0.9c0,0.3,0.2,0.5,0.6,0.3l12.6-7.3c0.3-0.2,0.5-0.5,0.6-0.9
				C76.9,200.4,76.7,200.3,76.4,200.5z"/>
			<path class="st2" d="M56.3,187.6l-10.5,6c-0.3,0.2-0.5,0.5-0.6,0.9c0,0.3,0.3,0.5,0.6,0.3l10.5-6c0.3-0.2,0.5-0.5,0.6-0.9
				C56.8,187.6,56.6,187.5,56.3,187.6z"/>
			<path class="st2" d="M84.8,224.9l-26.4,15.2c-0.3,0.2-0.5,0.5-0.6,0.9c0,0.3,0.2,0.5,0.6,0.3l26.4-15.2c0.3-0.2,0.5-0.6,0.6-0.9
				C85.4,224.8,85.1,224.7,84.8,224.9z"/>
			<path class="st2" d="M56.3,241.4l-10.5,6c-0.3,0.2-0.5,0.6-0.6,0.9c0,0.3,0.3,0.5,0.6,0.3l10.5-6c0.3-0.2,0.5-0.6,0.6-0.9
				C56.8,241.3,56.6,241.2,56.3,241.4z"/>
			<path class="st2" d="M56.3,226.7l-10.5,6c-0.3,0.2-0.5,0.5-0.6,0.9c0,0.3,0.3,0.5,0.6,0.3l10.5-6c0.3-0.2,0.5-0.6,0.6-0.9
				C56.8,226.7,56.6,226.6,56.3,226.7z"/>
			<path class="st2" d="M56.3,231.6l-10.5,6c-0.3,0.2-0.5,0.5-0.6,0.9c0,0.3,0.3,0.5,0.6,0.3l10.5-6c0.3-0.2,0.5-0.6,0.6-0.9
				C56.8,231.6,56.6,231.4,56.3,231.6z"/>
			<path class="st2" d="M65.2,221.6l-5.9,3.4c-0.3,0.2-0.5,0.5-0.6,0.9c0,0.3,0.2,0.5,0.6,0.3l5.9-3.4c0.3-0.2,0.5-0.6,0.6-0.9
				C65.8,221.5,65.5,221.4,65.2,221.6z"/>
			<path class="st2" d="M84.8,176.1l-15.4,8.9c-0.3,0.2-0.5,0.5-0.6,0.9c0,0.3,0.2,0.5,0.6,0.3l15.4-8.9c0.3-0.2,0.5-0.6,0.6-0.9
				C85.4,176,85.1,175.9,84.8,176.1z"/>
			<path class="st15" d="M84.8,176.1l-15.4,8.9c-0.3,0.2-0.5,0.5-0.6,0.9c0,0.3,0.2,0.5,0.6,0.3l15.4-8.9c0.3-0.2,0.5-0.6,0.6-0.9
				C85.4,176,85.1,175.9,84.8,176.1z"/>
			<path class="st2" d="M84.8,180.9l-5.2,3c-0.3,0.2-0.5,0.5-0.6,0.9c0,0.3,0.2,0.5,0.6,0.3l5.2-3c0.3-0.2,0.5-0.5,0.6-0.9
				C85.4,180.9,85.1,180.8,84.8,180.9z"/>
			<path class="st15" d="M84.8,180.9l-5.2,3c-0.3,0.2-0.5,0.5-0.6,0.9c0,0.3,0.2,0.5,0.6,0.3l5.2-3c0.3-0.2,0.5-0.5,0.6-0.9
				C85.4,180.9,85.1,180.8,84.8,180.9z"/>
			<path class="st2" d="M84.8,185.8l-5.2,3c-0.3,0.2-0.5,0.6-0.6,0.9c0,0.3,0.2,0.5,0.6,0.3l5.2-3c0.3-0.2,0.5-0.5,0.6-0.9
				C85.4,185.8,85.1,185.6,84.8,185.8z"/>
			<path class="st15" d="M84.8,185.8l-5.2,3c-0.3,0.2-0.5,0.6-0.6,0.9c0,0.3,0.2,0.5,0.6,0.3l5.2-3c0.3-0.2,0.5-0.5,0.6-0.9
				C85.4,185.8,85.1,185.6,84.8,185.8z"/>
			<path class="st2" d="M84.8,190.7l-5.2,3c-0.3,0.2-0.5,0.5-0.6,0.9c0,0.3,0.2,0.5,0.6,0.3l5.2-3c0.3-0.2,0.5-0.6,0.6-0.9
				C85.4,190.6,85.1,190.5,84.8,190.7z"/>
			<path class="st15" d="M84.8,190.7l-5.2,3c-0.3,0.2-0.5,0.6-0.6,0.9c0,0.3,0.2,0.5,0.6,0.3l5.2-3c0.3-0.2,0.5-0.6,0.6-0.9
				C85.4,190.6,85.1,190.5,84.8,190.7z"/>
			<path class="st20" d="M76.4,195.6L61,204.5c-0.3,0.2-0.5,0.6-0.6,0.9c0,0.3,0.2,0.5,0.6,0.3l15.4-8.9c0.3-0.2,0.5-0.6,0.6-0.9
				C76.9,195.5,76.7,195.4,76.4,195.6z"/>
			<path class="st20" d="M58.8,205.7l-6.7,3.9c-0.3,0.2-0.5,0.5-0.6,0.9c0,0.3,0.2,0.5,0.6,0.3l6.7-3.9c0.3-0.2,0.5-0.5,0.6-0.9
				C59.4,205.7,59.1,205.5,58.8,205.7z"/>
			<path class="st15" d="M76.4,195.6L61,204.5c-0.3,0.2-0.5,0.6-0.6,0.9c0,0.3,0.2,0.5,0.6,0.3l15.4-8.9c0.3-0.2,0.5-0.6,0.6-0.9
				C76.9,195.5,76.7,195.4,76.4,195.6z"/>
			<path class="st15" d="M58.8,205.7l-6.7,3.9c-0.3,0.2-0.5,0.5-0.6,0.9c0,0.3,0.2,0.5,0.6,0.3l6.7-3.9c0.3-0.2,0.5-0.5,0.6-0.9
				C59.4,205.7,59.1,205.5,58.8,205.7z"/>
			<path class="st2" d="M84.8,195.6l-5.2,3c-0.3,0.2-0.5,0.5-0.6,0.9c0,0.3,0.2,0.5,0.6,0.3l5.2-3c0.3-0.2,0.5-0.5,0.6-0.9
				C85.4,195.5,85.1,195.4,84.8,195.6z"/>
			<path class="st15" d="M84.8,195.6l-5.2,3c-0.3,0.2-0.5,0.5-0.6,0.9c0,0.3,0.2,0.5,0.6,0.3l5.2-3c0.3-0.2,0.5-0.5,0.6-0.9
				C85.4,195.5,85.1,195.4,84.8,195.6z"/>
			<path class="st2" d="M67.2,186.2l-6.7,3.9c-0.3,0.2-0.5,0.6-0.6,0.9c0,0.3,0.2,0.5,0.6,0.3l6.7-3.9c0.3-0.2,0.5-0.6,0.6-0.9
				C67.8,186.1,67.6,186,67.2,186.2z"/>
			<path class="st15" d="M67.2,186.2l-6.7,3.9c-0.3,0.2-0.5,0.6-0.6,0.9c0,0.3,0.2,0.5,0.6,0.3l6.7-3.9c0.3-0.2,0.5-0.6,0.6-0.9
				C67.8,186.1,67.6,186,67.2,186.2z"/>
			<path class="st11" d="M70,209l-15.4,8.9c-0.3,0.2-0.5,0.6-0.6,0.9c0,0.3,0.3,0.5,0.6,0.3l15.4-8.9c0.3-0.2,0.5-0.5,0.6-0.9
				C70.6,209,70.3,208.8,70,209z"/>
			<path class="st11" d="M61.1,219l-15.4,8.9c-0.3,0.2-0.5,0.6-0.6,0.9c0,0.3,0.3,0.5,0.6,0.3l15.4-8.9c0.3-0.2,0.5-0.6,0.6-0.9
				C61.7,219,61.5,218.9,61.1,219z"/>
			<path class="st11" d="M52.4,219.1l-6.7,3.9c-0.3,0.2-0.5,0.5-0.6,0.9c0,0.3,0.3,0.5,0.6,0.3l6.7-3.9c0.3-0.2,0.5-0.6,0.6-0.9
				C53,219.1,52.7,219,52.4,219.1z"/>
			<path class="st1" d="M52.4,238.5l-6.7,3.9c-0.3,0.2-0.5,0.6-0.6,0.9c0,0.3,0.3,0.5,0.6,0.3l6.7-3.9c0.3-0.2,0.5-0.6,0.6-0.9
				C53,238.4,52.7,238.3,52.4,238.5z"/>
			<path class="st2" d="M76.4,185.8L61,194.7c-0.3,0.2-0.5,0.5-0.6,0.9c0,0.3,0.2,0.5,0.6,0.3l15.4-8.9c0.3-0.2,0.5-0.5,0.6-0.9
				C76.9,185.8,76.7,185.6,76.4,185.8z"/>
			<path class="st15" d="M76.4,185.8L61,194.7c-0.3,0.2-0.5,0.5-0.6,0.9c0,0.3,0.2,0.5,0.6,0.3l15.4-8.9c0.3-0.2,0.5-0.5,0.6-0.9
				C76.9,185.8,76.7,185.6,76.4,185.8z"/>
			<path class="st2" d="M58.8,196l-6.7,3.9c-0.3,0.2-0.5,0.6-0.6,0.9c0,0.3,0.2,0.5,0.6,0.3l6.7-3.9c0.3-0.2,0.5-0.6,0.6-0.9
				C59.4,195.9,59.1,195.8,58.8,196z"/>
			<path class="st15" d="M58.8,196l-6.7,3.9c-0.3,0.2-0.5,0.6-0.6,0.9c0,0.3,0.2,0.5,0.6,0.3l6.7-3.9c0.3-0.2,0.5-0.6,0.6-0.9
				C59.4,195.9,59.1,195.8,58.8,196z"/>
		</g>
		<g id="freepik--Mouse--inject-4">
			<path class="st7" d="M163.6,251.9l-9.4,5.4c-3.3,1.7-7.3,1.5-10.4-0.5l-15.5-11.4c-2.8-2-2.6-5,0.4-6.8l4.7-2.7
				c3.4-1.7,7.4-1.9,10.9-0.3l19.2,10.4C166.5,247.6,166.6,250.2,163.6,251.9z"/>
			<path class="st2" d="M128,240.5l10.7,8.4l7.9,6.2c0.8,0.4,1.7,0.6,2.5,0.6c1.3,0.1,2.6-0.2,3.8-0.8l8.4-4.9l0,0h0
				c2.8-1.8,3.6-5.5,1.9-8.3c-0.1-0.1-0.1-0.2-0.2-0.3l-0.2-0.4c-1.7-2.2-4.1-3.8-6.8-4.3l-4.3-0.9c-6.9-1.4-12.6-2.1-13.2-1.6
				L128,240.5L128,240.5z"/>
			<path class="st2" d="M134,245.2l-0.6-0.5l9.5-5.5l-8.3-2.6l0.8-0.5l8.3,2.6l5.7-3.3l1.1,0.2L134,245.2z"/>
			<path class="st8" d="M145.7,254.6L145.7,254.6L145.7,254.6l-7.6-5.5l-10.2-7.4v-1.2c0,0,0-0.1,0-0.1h0.1
				c0.8-0.3,5.2,1.1,10.5,3.2l3.5,1.4c4.3,1.7,7.1,5.9,7.1,10.5v0.2c-0.9,0-1.7-0.3-2.5-0.6L145.7,254.6z"/>
		</g>
	</g>
</g>
<g id="freepik--Plant--inject-4">
	<g id="freepik--Pot--inject-4">
		<path class="st2" d="M127,405.5c10.4-10.7,16.5-54.3,6.4-62.8H81.9c-10.1,8.5-4,52.1,6.3,62.8l0.3,0.3c0.1,0.1,0.2,0.2,0.4,0.4
			c0.3,0.3,0.6,0.6,0.9,0.8l0.2,0.2c0.2,0.2,0.5,0.4,0.8,0.6c0.4,0.3,0.9,0.6,1.3,0.9c8.5,5,22.4,5,30.9,0l0,0
			c0.5-0.3,0.9-0.6,1.4-0.9c0.3-0.2,0.5-0.4,0.7-0.6l0.3-0.2c0.3-0.3,0.6-0.5,0.9-0.8c0.1-0.1,0.3-0.3,0.4-0.4
			C126.9,405.7,126.9,405.6,127,405.5z"/>
		<g class="st13">
			<path class="st11" d="M127,405.5c10.4-10.7,16.5-54.3,6.4-62.8H81.9c-10.1,8.5-4,52.1,6.3,62.8l0.3,0.3c0.1,0.1,0.2,0.2,0.4,0.4
				c0.3,0.3,0.6,0.6,0.9,0.8l0.2,0.2c0.2,0.2,0.5,0.4,0.8,0.6c0.4,0.3,0.9,0.6,1.3,0.9c8.5,5,22.4,5,30.9,0l0,0
				c0.5-0.3,0.9-0.6,1.4-0.9c0.3-0.2,0.5-0.4,0.7-0.6l0.3-0.2c0.3-0.3,0.6-0.5,0.9-0.8c0.1-0.1,0.3-0.3,0.4-0.4
				C126.9,405.7,126.9,405.6,127,405.5z"/>
		</g>
		<path class="st2" d="M86.3,339.3c-11.8,6.9-11.8,18,0,24.9s30.8,6.9,42.6,0s11.8-18,0-24.9S98.1,332.5,86.3,339.3z"/>
		<g class="st21">
			<path class="st11" d="M86.3,339.3c-11.8,6.9-11.8,18,0,24.9s30.8,6.9,42.6,0s11.8-18,0-24.9S98.1,332.5,86.3,339.3z"/>
		</g>
		<path class="st2" d="M92,342.6c-8.6,5-8.6,13.2,0,18.2s22.6,5,31.3,0s8.6-13.2,0-18.2S100.6,337.6,92,342.6z"/>
		<g class="st22">
			<path d="M92,342.6c-8.6,5-8.6,13.2,0,18.2s22.6,5,31.3,0s8.6-13.2,0-18.2S100.6,337.6,92,342.6z"/>
		</g>
		<path class="st0" d="M123.2,351.3c-8.6-5-22.6-5-31.3,0c-2.1,1.1-3.9,2.8-5.2,4.8c1.3,2,3.1,3.7,5.2,4.8c8.6,5,22.6,5,31.3,0
			c2.1-1.1,3.9-2.8,5.2-4.8C127.1,354.1,125.3,352.4,123.2,351.3z"/>
		<g id="freepik--Plants--inject-4">
			<path class="st2" d="M111.8,329.3c0.6-1.2,1-2.5,1.3-3.8c0.6-3.1-0.2-6.7-2.7-8.7c-1-0.8-2.3-1.3-2.8-2.5c-0.2-0.7-0.2-1.4,0-2.1
				c0.5-2.7,1.4-5.4,0.6-8c-0.8-2.4-2.6-4.4-5-5.4c-2.3-1-4.8-1.6-7.3-1.9c-1.3-0.1-2.6-0.5-3.9-1.1c-1.4-0.8-1.9-2.2-2.8-3.5
				c-1-1.4-2.2-2.6-3.5-3.8c-2.6-2.3-5.9-4.3-9.5-4.1c-7.6,0.3-7.4,6.9-5.2,11.8s2.8,6.5-2,11.7s-4.7,11.5,0.9,15s9.3,4,7.1,10.9
				c-2,6.1-3.2,11.3,2.4,17.9c3.6,4.2,8.6,7.2,14.9,7c2.5-0.2,5-0.8,7.3-1.7c1.7-0.9,0.6-2.2,1.1-3.9l3.7-10.9
				c0.8-2.9,1.8-5.8,3-8.6C110.3,332.1,111.1,330.7,111.8,329.3z"/>
			<g class="st23">
				<path d="M111.8,329.3c0.6-1.2,1-2.5,1.3-3.8c0.6-3.1-0.2-6.7-2.7-8.7c-1-0.8-2.3-1.3-2.8-2.5c-0.2-0.7-0.2-1.4,0-2.1
					c0.5-2.7,1.4-5.4,0.6-8c-0.8-2.4-2.6-4.4-5-5.4c-2.3-1-4.8-1.6-7.3-1.9c-1.3-0.1-2.6-0.5-3.9-1.1c-1.4-0.8-1.9-2.2-2.8-3.5
					c-1-1.4-2.2-2.6-3.5-3.8c-2.6-2.3-5.9-4.3-9.5-4.1c-7.6,0.3-7.4,6.9-5.2,11.8s2.8,6.5-2,11.7s-4.7,11.5,0.9,15s9.3,4,7.1,10.9
					c-2,6.1-3.2,11.3,2.4,17.9c3.6,4.2,8.6,7.2,14.9,7c2.5-0.2,5-0.8,7.3-1.7c1.7-0.9,0.6-2.2,1.1-3.9l3.7-10.9
					c0.8-2.9,1.8-5.8,3-8.6C110.3,332.1,111.1,330.7,111.8,329.3z"/>
			</g>
			<path class="st11" d="M101.5,357c-0.2-0.1-0.4-0.3-0.4-0.5c0.3-37.4-20.3-59.8-20.5-60c-0.2-0.2-0.2-0.6,0-0.8
				c0.2-0.2,0.6-0.2,0.8,0c0.2,0.2,21.1,22.9,20.8,60.8c0,0.3-0.2,0.6-0.5,0.6c0,0,0,0,0,0L101.5,357z"/>
			<path class="st11" d="M95.5,322.2l-0.1,0c-6.7-4.2-18.7-7.4-18.8-7.4c-0.3-0.1-0.5-0.4-0.4-0.7c0.1-0.3,0.4-0.5,0.7-0.4
				c0,0,0,0,0,0c0.5,0.1,12.3,3.2,19.1,7.5c0.3,0.2,0.3,0.5,0.2,0.8c0,0,0,0,0,0C96.1,322.2,95.8,322.3,95.5,322.2z"/>
			<path class="st11" d="M93.5,317L93.5,317c-0.3-0.1-0.4-0.5-0.3-0.7c1.6-3.7,3.7-7.2,6.2-10.4c0.2-0.2,0.5-0.3,0.8-0.1
				c0,0,0,0,0,0c0.2,0.2,0.3,0.6,0.1,0.8c-2.5,3.1-4.5,6.5-6,10.1C94.1,317,93.8,317.1,93.5,317C93.5,317,93.5,317,93.5,317z"/>
			<path class="st2" d="M106.8,361c5.3,1.7,11,1.9,16.4,0.6c9.4-2,15.2-10.8,15.2-10.8s-10.2-4.1-16.1-4.5c5.9-0.9,12-0.8,17.9,0.4
				c0,0,5.5-2,4.4-11.2c0,0-5.1-3.8-17-2.3c0,0,5.9-4.2,16.3-5.5c0.8,0-0.3-12-1.3-17.4s-3-4.5-7.2-4.1s-16.8,3.3-18.4,6.4
				s0,10.9,0,10.9c-2.2-3-3.4-6.6-3.5-10.3c0,0-4.7,1.7-7.3,4c-1.9,1.5-3.4,3.5-4.5,5.7c0.6,4.2,2.6,10.6,5.4,14.2
				c0,0-6.3-4-7.7-11.5c-3.1,4.3-4.9,9.4-5,14.6C94.5,349.8,98.7,356.7,106.8,361z"/>
			<path class="st24" d="M106.8,361c5.3,1.7,11,1.9,16.4,0.6c9.4-2,15.2-10.8,15.2-10.8s-10.2-4.1-16.1-4.5c5.9-0.9,12-0.8,17.9,0.4
				c0,0,5.5-2,4.4-11.2c0,0-5.1-3.8-17-2.3c0,0,5.9-4.2,16.3-5.5c0.8,0-0.3-12-1.3-17.4s-3-4.5-7.2-4.1s-16.8,3.3-18.4,6.4
				s0,10.9,0,10.9c-2.2-3-3.4-6.6-3.5-10.3c0,0-4.7,1.7-7.3,4c-1.9,1.5-3.4,3.5-4.5,5.7c0.6,4.2,2.6,10.6,5.4,14.2
				c0,0-6.3-4-7.7-11.5c-3.1,4.3-4.9,9.4-5,14.6C94.5,349.8,98.7,356.7,106.8,361z"/>
			<path class="st11" d="M105.5,360.2c0.2-0.1,0.3-0.3,0.3-0.5c1.4-17.9,21.4-45.8,30.2-51.4c0.2-0.2,0.3-0.5,0.2-0.8
				c-0.2-0.2-0.5-0.3-0.7-0.2c-9,5.7-29.3,34-30.7,52.2c0,0.3,0.2,0.6,0.5,0.6c0,0,0,0,0,0C105.4,360.2,105.5,360.2,105.5,360.2z"/>
		</g>
	</g>
</g>
<g id="freepik--Character--inject-4">
	<g id="freepik--character--inject-4">
		<path class="st25" d="M286.2,349c0-0.2,3.2-11.8,3.2-11.8s-1,1.1-7.8-0.7c-2.5-0.8-5-1.8-7.3-3.1l-1.9,8.5
			c-1.8,3.3-7.7,1.8-14.2,1c-1.1-0.1-2.2-0.3-3.3-0.5h-0.1c-3.5-0.2-7,1.9-3.4,4.9s9.6,4.1,15.2,5.1
			C273.4,353.7,285,355.6,286.2,349z"/>
		<path class="st8" d="M239.7,348c-0.5,1.1-0.6,2.4-0.5,3.6c0.1,1.3,3.3,5.7,9,8.4s12.6,2.9,15.9,3.8s6.3,2.8,10.1,3.8
			c3.9,0.9,7.7,1.4,11.5-1.1c0.7-1.1,1.5-3.6,1.3-3.9C286.3,361.8,239.7,348,239.7,348z"/>
		<path class="st2" d="M271.5,343.1c-2.5,1.7-7.6,0.5-13.2-0.1c-5.2-0.6-11.1-2.4-14.7-1.2c-3.6,1.2-6.5,5.4-1.7,10.8
			c1.4,1.5,4.3,4.3,6.7,5.1c6,2.1,11.3,2.3,15.2,3.3c5,1.2,7.7,3.5,12.4,4c6,0.7,9.8-0.8,10.8-2.4s2-14.5-0.6-14.2
			c0,0-1.1,4.2-10.9,0.1C271.2,346.6,271.3,344,271.5,343.1z"/>
		<path class="st6" d="M271.5,343.1c-2.5,1.7-7.6,0.5-13.2-0.1c-5.2-0.6-11.1-2.4-14.7-1.2c-3.6,1.2-6.5,5.4-1.7,10.8
			c1.4,1.5,4.3,4.3,6.7,5.1c6,2.1,11.3,2.3,15.2,3.3c5,1.2,7.7,3.5,12.4,4c6,0.7,9.8-0.8,10.8-2.4s2-14.5-0.6-14.2
			c0,0-1.1,4.2-10.9,0.1C271.2,346.6,271.3,344,271.5,343.1z"/>
		<path class="st26" d="M254.9,350c0,0,0.6-5.4,4.6-6.9c0.7-0.3,1.6-0.2,2.2,0.3c0,0-3.7,0.5-5,6.9c0,0-0.2,0.4-1,0.3
			C255.4,350.5,254.8,350.4,254.9,350z"/>
		<path class="st26" d="M265.1,343.8c0,0,0-0.2-0.9-0.4c-0.4-0.1-0.8,0-1.1,0.1c0,0-3,1.3-3.6,7c0,0,0,0.7,0.9,0.9
			c0.4,0.2,0.9-0.1,1-0.5c0,0,0,0,0-0.1C261.5,350.9,262.1,344.9,265.1,343.8z"/>
		<path class="st26" d="M268.3,343.9c0,0-0.2-0.3-0.9-0.3c-0.9,0-1.1,0.4-1.1,0.4s-2.1,2.2-2.2,7c0,0-0.1,0.8,1,0.9s1-0.8,1-0.8
			S266.6,344.9,268.3,343.9z"/>
		<path class="st2" d="M290.4,270.2c-4.9,14.7-17.9,65.5-17.9,65.5s8.5,7.6,17.6,4.1l21.9-63.2L290.4,270.2z"/>
		<path class="st25" d="M252.6,365.4c1-1.5,4.8-11.8,4.8-11.8s-3.9,2.2-10.7,0.6c-3.4-0.8-6.6-4.5-6.6-4.5l-2.9,9.9
			c-1.7,3.3-7.2,2.2-13.7,1.6c-1.1-0.1-2.2-0.3-3.3-0.4H220c-3.5-0.1-7,2.1-3.2,5s9.7,3.9,15.3,4.7
			C238.7,371.6,248.8,371,252.6,365.4z"/>
		<path class="st8" d="M202.2,365.1c-0.5,1.2-0.6,2.5-0.4,3.8c0.2,1.4,3.7,6,9.8,8.7s13.6,2.7,17.2,3.7s6.8,2.9,11,3.8
			s8.3,1.3,12.3-1.5c0.7-1.2,1.5-3.9,1.3-4.2C252.6,378.7,202.2,365.1,202.2,365.1z"/>
		<path class="st2" d="M236.1,358.9c-0.4,0.3-0.8,0.5-1.2,0.8c-0.4,0.2-0.9,0.3-1.4,0.3c-1.1,0.1-2.2,0.1-3.3,0.1
			c-2.7-0.1-5.5-0.5-8.2-0.8c-5.6-0.5-12-2.3-15.8-0.9s-7.2,6-1.9,11.6c2,2.2,4.4,4,7.1,5.4c6.3,2.6,12.8,2.1,17,3.1
			c5.4,1.2,8.4,3.5,13.4,4c6.4,0.6,10.5-1.2,11.5-2.9c0.6-1-0.1-6,0.7-10c0.7-3.4,0.5-5.7-0.7-5.5c-0.3,0.4-0.6,0.8-0.9,1.2
			c-0.4,0.5-0.9,0.9-1.4,1.1c-0.8,0.4-1.6,0.6-2.4,0.8c-1.5,0.4-3,0.7-4.5,0.6c-0.4,0-0.9-0.1-1.2-0.4c-0.4-0.4-0.7-0.9-0.7-1.5
			c-0.1-0.5-0.2-1-0.3-1.5c0-0.3-0.1-0.5-0.3-0.8c-0.2-0.3-0.5-0.5-0.8-0.6c-1-0.4-1.8-1.1-2.5-1.9c-0.4-0.7-0.6-1.5-0.7-2.3
			c0-0.1-0.1-0.3-0.2-0.4c-0.2-0.1-0.5,0-0.6,0.1L236.1,358.9z"/>
		<path class="st6" d="M236.1,358.9c-0.4,0.3-0.8,0.5-1.2,0.8c-0.4,0.2-0.9,0.3-1.4,0.3c-1.1,0.1-2.2,0.1-3.3,0.1
			c-2.7-0.1-5.5-0.5-8.2-0.8c-5.6-0.5-12-2.3-15.8-0.9s-7.2,6-1.9,11.6c2,2.2,4.4,4,7.1,5.4c6.3,2.6,12.8,2.1,17,3.1
			c5.4,1.2,8.4,3.5,13.4,4c6.4,0.6,10.5-1.2,11.5-2.9c0.6-1-0.1-6,0.7-10c0.7-3.4,0.5-5.7-0.7-5.5c-0.3,0.4-0.6,0.8-0.9,1.2
			c-0.4,0.5-0.9,0.9-1.4,1.1c-0.8,0.4-1.6,0.6-2.4,0.8c-1.5,0.4-3,0.7-4.5,0.6c-0.4,0-0.9-0.1-1.2-0.4c-0.4-0.4-0.7-0.9-0.7-1.5
			c-0.1-0.5-0.2-1-0.3-1.5c0-0.3-0.1-0.5-0.3-0.8c-0.2-0.3-0.5-0.5-0.8-0.6c-1-0.4-1.8-1.1-2.5-1.9c-0.4-0.7-0.6-1.5-0.7-2.3
			c0-0.1-0.1-0.3-0.2-0.4c-0.2-0.1-0.5,0-0.6,0.1L236.1,358.9z"/>
		<path class="st26" d="M218.5,366.8c0,0,0.5-5.9,4.7-7.5c0.8-0.4,1.7-0.3,2.4,0.2c0,0-4,0.7-5.1,7.6c0,0-0.2,0.5-1.1,0.3
			C219.1,367.4,218.5,367.3,218.5,366.8z"/>
		<path class="st26" d="M229.3,359.9c0,0,0-0.2-1-0.4c-0.4-0.1-0.8,0-1.2,0.2c0,0-3.2,1.5-3.6,7.6c0,0,0,0.7,1,0.9
			c0.5,0.2,1-0.1,1.1-0.6c0,0,0,0,0-0.1C225.7,367.6,226.1,361.2,229.3,359.9z"/>
		<path class="st26" d="M232.8,360c0,0-0.2-0.4-1-0.3c-1,0-1.2,0.4-1.2,0.4s-2.2,2.4-2.1,7.5c0,0-0.1,0.9,1.1,0.9s1-0.9,1-0.9
			S230.9,361,232.8,360z"/>
		<path class="st3" d="M255.9,287.6c-3.9,11.9-13.7,45.7-18.2,63c0,0,8.1,7.3,18.5,6.6l25.1-65.1l-10-6.2L255.9,287.6z"/>
		<path class="st3" d="M338.5,450c-0.9,0-1.6-0.7-1.6-1.6l0,0V343.8c0-0.9,0.7-1.6,1.6-1.6c0.9,0,1.6,0.7,1.6,1.6v104.6
			C340.1,449.3,339.4,450,338.5,450z"/>
		<path class="st3" d="M403.2,412c-0.7,0-1.3-0.4-1.5-1l-32.1-81.2c-0.4-0.8-0.1-1.8,0.7-2.2s1.8-0.1,2.2,0.7c0,0.1,0.1,0.2,0.1,0.3
			l32.1,81.1c0.3,0.8-0.1,1.8-0.9,2.1C403.6,411.9,403.4,412,403.2,412z"/>
		<path class="st3" d="M399.4,402.2c-0.4,0-0.9-0.2-1.2-0.5l-59.7-63.1l-59.6,62.9c-0.7,0.6-1.7,0.6-2.3-0.1
			c-0.6-0.6-0.6-1.5-0.1-2.2l60.8-64.1c0.3-0.3,0.7-0.5,1.2-0.5l0,0c0.4,0,0.9,0.2,1.2,0.5l60.9,64.4c0.6,0.7,0.6,1.7-0.1,2.3
			C400.2,402,399.8,402.2,399.4,402.2L399.4,402.2z"/>
		<path class="st3" d="M273.8,412c-0.2,0-0.4,0-0.6-0.1c-0.8-0.3-1.2-1.3-0.9-2.1l32.1-81.2c0.2-0.9,1.1-1.4,2-1.2s1.4,1.1,1.2,2
			c0,0.1-0.1,0.3-0.2,0.4L275.3,411C275,411.6,274.4,412,273.8,412z"/>
		<path class="st2" d="M273,307.9c-1.2-6.6,4.2-11.7,14.2-18.5c9.3-6.1,19-11.6,29.1-16.4c8.4-3.9,17-3.5,27.8,2c15,7.7,60,35,60,35
			s-67.3,38-80.3,36.3s-45.3-22.8-47.9-30.2C273.4,308.8,273,307.9,273,307.9z"/>
		<g class="st27">
			<path d="M273,307.9c-1.2-6.6,4.2-11.7,14.2-18.5c9.3-6.1,19-11.6,29.1-16.4c8.4-3.9,17-3.5,27.8,2c15,7.7,60,35,60,35
				s-67.3,38-80.3,36.3s-45.3-22.8-47.9-30.2C273.4,308.8,273,307.9,273,307.9z"/>
		</g>
		<path class="st2" d="M330.4,338.4c-9.7,8.8-19.8,1.2-35.7-9.1c-18.1-11.7-21.6-21.3-21.6-21.3s0,7.2,1.3,10.6
			c1.4,3.4,4.3,7.2,17.3,16.2c13,9,22.5,13.5,31.3,15.2l6.9-1"/>
		<path class="st5" d="M294.6,329.3c-18.1-11.7-21.6-21.3-21.6-21.3s0,7.2,1.4,10.6s4.3,7.2,17.3,16.2s22.5,13.5,31.3,15.2l6.9-1
			l0.5-10.5C320.7,347.2,310.6,339.6,294.6,329.3z"/>
		<path class="st2" d="M400.7,399.2l5,11.4c0,0.1,0,0.2,0.1,0.3c0,0.1,0,0.1,0,0.2c-0.1,0.3-0.3,0.6-0.6,0.8
			c-0.8,0.5-1.8,0.5-2.7,0.1c-0.2-0.1-0.4-0.3-0.6-0.5l0,0v-0.1l-4.6-10.7L400.7,399.2z"/>
		<path class="st2" d="M276,399.7l-4.3,11.2c0,0.1,0,0.2,0,0.3v0.2c0.1,0.3,0.3,0.6,0.6,0.7c0.8,0.4,1.8,0.4,2.6,0
			c0.2-0.1,0.4-0.3,0.5-0.5l0,0v-0.2l3.9-10.5L276,399.7z"/>
		<path class="st2" d="M340.4,440.3v9.3c0,0.3-0.3,0.6-0.5,0.8c-0.8,0.4-1.8,0.4-2.7,0c-0.3-0.1-0.5-0.4-0.5-0.8v-9.3
			C337.8,439.7,339.2,439.7,340.4,440.3z"/>
		<path class="st2" d="M377.2,268.7c-3.8,4.5-38.7-5.6-48-6.8c-14.9-2-27-3.5-32.1-1.9s-7.2,4.2-8.8,10.2
			c-1.8,7.1-2.8,10.8-2.8,10.8s24.8,9.5,44.3,11.8C349.4,295.1,377.2,268.7,377.2,268.7z"/>
		<path class="st3" d="M383.7,275.3c3.9,14.7,7.3,31.9-1.6,41.3c-6,6.3-36.3,22.7-55.8,16.3c-19.2-6.4-59.1-36-63.1-38.9
			s-7.6-5-7.2-6.3c5.4-17.8,13.2-19.2,27.8-16c17.8,3.9,56.9,19.9,56.9,19.9L383.7,275.3z"/>
		<polygon class="st25" points="295.2,180.5 308.6,195.7 330.3,185.4 315.2,164.4 		"/>
		<path class="st28" d="M278.5,151.7c0,0-5.5,7.9-4.9,8.8s4.5,1.6,4.5,1.6L278.5,151.7z"/>
		<path class="st8" d="M278.6,156.9c3.6,0,6.6-2.9,6.6-6.6s-2.9-6.6-6.6-6.6s-6.6,2.9-6.6,6.6C272,154,274.9,156.9,278.6,156.9z
			 M278.6,145c3,0,5.4,2.4,5.4,5.4s-2.4,5.4-5.4,5.4c-3,0-5.4-2.4-5.4-5.4c0,0,0,0,0,0C273.2,147.4,275.6,145,278.6,145L278.6,145z"
			/>
		<path class="st25" d="M293.8,129.7c-10.8,2-14,6.7-15.4,23.8c-1.5,17.8,0.2,23.5,2.5,25.9c1.5,1.7,10.3,2.2,14.8,1
			c5.6-1.4,18.2-5.6,24.3-14.4c7.2-10.4,9.3-24.7,2-30.7C311.8,126.8,298.2,128.9,293.8,129.7z"/>
		<path class="st28" d="M295.2,180.5c-4.7,1-11.7,0.4-13.8-0.8c2.6,0.6,5.3,0.5,7.8-0.3c2.5-0.7,5-1.7,7.2-3.2L295.2,180.5z"/>
		<path class="st8" d="M276.4,136.7L276.4,136.7c3,2.1,6.7,2.9,10.3,3.5c-0.3,2.9,0.6,5.8,1.5,8.5c0.6,1.9,2.9,7.9,5.3,4.6
			c1.8-2.4,3.4-4.6,6.8-4c5.6,1,6.2,8.1,2.5,12.4s-6.9,2.5-6.9,2.5s-0.5,7.7,3.6,13.1c0,0,6,3.7,14.5,0.9c5.4-1.8,13.1-8.5,16-13.8
			c7.8-14.5,7.9-28.4-1.6-32.7c-0.9-7-6.3-10.2-12.5-11.8c-8.6-2.2-17.5,3.2-25.8-0.3c-1.8-0.8-3.4-1.8-5.1-2.5
			c-1-0.5-2.1-0.5-3.1,0c-0.7,0.6-1.2,1.4-1.3,2.4c-0.5,1.6-0.4,3.4,0.3,5c-1.2-0.7-2.5-1.1-3.9-1.4c-1.4-0.3-2.8,0-3.9,0.9
			c-1,0.9-1.5,2.1-1.6,3.4C271.1,131.1,273.4,134.6,276.4,136.7z"/>
		<path class="st8" d="M328.5,134.1l6.5-3.6c-0.9-1.8-3.2-2.6-5-1.7c-1.8,0.9-2.6,3.2-1.7,5C328.4,133.9,328.5,134,328.5,134.1z"/>
		
			<rect x="282.6" y="140.8" transform="matrix(0.1834 -0.983 0.983 0.1834 82.3541 401.9505)" class="st8" width="1" height="21.3"/>
		<path class="st25" d="M249.9,189.4c0.6-0.9,1.8-1.1,2.9-1.5c1.9-0.7,3.4-2.2,5.3-3c2.1-0.9,4.5-1,6.7-0.4c0.8,0.2,1.5,0.4,2.2,0.7
			c1.4,0.6,2.7,1.2,4,2c5.3,3.1,9.3,10.2,14.5,13.5c1.9,1.2,3.8,2.3,5.5,3.4l-12.5,11.1c-2-1.7-4-3.2-6.1-4.7
			c-3.1-1.8-6.1-1.9-9.6-2.4c-2.4-0.4-4.7-1-7-1.8c-0.8-0.1-1.6-0.6-2.1-1.4c-0.3-1.1,0.3-2.2,1.3-2.6c1.2-0.3,2.4-0.5,3.6-0.5
			c0.9-0.1,3.3,0.4,3.8-0.5c0.3-0.5-0.1-1.1-0.4-1.5c-2.2-2.7-4.9-5.6-8.3-6.4c-1.1-0.2-2.1-0.6-3-1.2
			C249.7,191.7,249.4,190.4,249.9,189.4z"/>
		<path class="st2" d="M324.2,177c13.2-7.2,25.2-2.6,29.6,6.7c3.9,8.4,12.2,40.9,12.2,40.9C362,232,324.2,177,324.2,177z"/>
		<path class="st2" d="M326.2,179.6l-2-2.6c14.9-7.1,28.3,2.2,40,20.5c12.7,19.7,19.3,48,19.4,77.9c0,0-2.5,13.4-19.5,20.1
			c-18,7.1-43.1,4.1-50.9-14.5c0,0-0.2-18.6-5.8-27.8c-3.7-5.9-12.2-19.1-18.6-28.6c-5.5-8.2-9.9-27,1.7-33.9c3-1.8,6.2-3.4,9.4-4.8
			C310.5,189.4,327.6,183.8,326.2,179.6z"/>
		<path class="st29" d="M326.2,179.7l-1.9-2.7c14.9-7.1,28.3,2.2,40,20.5c12.7,19.7,19.3,48,19.4,77.9c0,0-2.5,13.4-19.5,20.1
			c-18,7.1-43.1,4.1-50.9-14.5c0,0-0.2-18.6-5.8-27.8c-3.7-5.9-12.2-19.1-18.6-28.6c-5.5-8.2-9.9-27,1.7-33.9c3-1.8,6.2-3.4,9.4-4.8
			C310.5,189.4,327.5,183.9,326.2,179.7z"/>
		<path class="st30" d="M284,212.6c-0.8-3.6-1-7.2-0.5-10.9l0,0c2.7,6.4,6.5,12.2,11.3,17.2c6.1,6.4,13.6,11.4,19.2,18.1
			c6,7.2,10.2,15.9,15.2,23.7c2,3.1,4.7,9.2,8.5,9.5c4.5,0.3,8.9-5.2,11.3-9.1c4-6.1,7.3-13.7,12.2-19c4.3-4.7,10.9-10.6,16.8-7.9
			l0,0c0.4,1.6,0.9,3.1,1.2,4.7c0.4,1.6,0.8,3.2,1.1,4.8c0,0.1,0,0.1,0,0.2c0.3,1.6,0.6,3.2,0.9,4.9c0,0.1,0,0.2,0,0.3
			c0.3,1.6,0.5,3.2,0.8,4.9c1,7.1,1.5,14.2,1.5,21.4c0,0-2.5,13.4-19.5,20.1c-18,7.1-43.1,4.1-50.9-14.5c0,0-0.2-18.6-5.8-27.8
			c-0.6-0.9-1.3-2-2-3.3l0,0l-0.1-0.2c-0.7-1-1.4-2.1-2.1-3.3c0-0.1-0.1-0.1-0.1-0.2c0,0,0-0.1,0-0.1c-1.6-2.5-3.4-5.3-5.3-8.2
			l-0.9-1.3c-1.8-2.8-3.7-5.6-5.4-8.2l0,0c-0.6-0.9-1.2-1.8-1.8-2.6c-0.2-0.4-0.5-0.7-0.7-1.1l0,0c-0.2-0.3-0.4-0.6-0.6-0.9
			l-0.2-0.3l-0.4-0.7l-0.2-0.3l-0.5-0.9c0-0.1-0.1-0.2-0.1-0.2c-0.2-0.4-0.4-0.8-0.5-1.2V220v-0.1c-0.2-0.4-0.3-0.8-0.5-1.1
			c0-0.1-0.1-0.2-0.1-0.3c-0.1-0.4-0.3-0.7-0.4-1.1v-0.1v-0.1c-0.2-0.7-0.5-1.4-0.7-2.1l0,0c-0.2-0.7-0.4-1.5-0.5-2.2v-0.1
			L284,212.6z"/>
		<path class="st25" d="M214.8,230.8c0.9,1.1,2,2.2,3.1,3.2c4.6,4.1,9.9,6.1,16.1,10.1c5,3.2,12.7,8,19.2,12.1
			c6.6,4.1,13.6,7.3,21,9.7c6,1.8,9.4,1.9,13-7.8c1.8-4.8,3.1-9.6,4.7-14.5c2.2-7.2,4.5-14.4,6.6-21.6c3.3-10.8,8-19.8-10-29.8
			c-7.8,4.5-10.8,6.3-13.3,15.7c-2.9,11.2-7.7,33.4-7.7,33.4c-6.4-2.2-12.6-4.9-18.6-7.9c-2.3-1.1-5.1-1.9-6.7-3.9
			c-1.1-1.4-2-2.9-2.9-4.5c-0.8-1.4-1.3-2.9-2.2-4.2c-1.7-2.4-3.7-4.6-5.9-6.5c-0.4-0.4-0.9-0.7-1.4-0.9c-0.6,0-1.2,0.3-1.5,0.9
			c-0.7,1.2,0,2.3,0.3,3.5c0.4,1.4,0.8,2.7,1.2,4c-4.6-2.7-8.5-6.3-11.5-10.7c-0.3-0.4-0.6-0.8-0.9-1.1c-0.4-0.3-0.8-0.5-1.3-0.5
			c-1.2,0.1-2.4,2.1-2.5,3.2c0.1,1.1,0,2.3-0.1,3.4c-0.3,1-1,1.9-1.3,2.9c-0.3,1.1-0.6,2.1-0.7,3.2c-0.1,2.4,0.5,4.8,1.8,6.8
			C213.9,229.6,214.3,230.2,214.8,230.8z"/>
		<path class="st2" d="M289.6,191.4c-6.9,2.8-11.8,5.9-14.9,16.4c-3.1,10.5-6.5,27.3-6.5,27.3s-0.1,3.5,8.3,8.4
			c4.8,2.9,10.7,3.7,16.1,2.2l6.3-20.2C298.9,225.4,310,198.3,289.6,191.4z"/>
		<path class="st2" d="M329.8,348.9c5.5-0.3,9.8-4.3,22.9-9.8c24.2-10.1,42.3-18.1,49.2-30.8c6.9-12.6,11.8-49.2,10.1-65
			c-0.2-1.8-0.6-3.6-1.2-5.2l1.7-0.2l-4.4-3.8l0,0c-4.5-3.7-11.9-0.4-17.4,2.6c-15.8,8.6-28.2,17-38,47.2
			c-7.4,22.7-12.2,43.4-22.4,54.5"/>
		<path class="st31" d="M410.8,238.1l1.7-0.2l-4.4-3.8l0,0c-4.5-3.7-11.9-0.4-17.4,2.6c-15.8,8.6-28.2,17-38,47.2
			c-7.4,22.7-12.2,43.4-22.4,54.5l-0.5,10.5c5.5-0.3,9.8-4.3,22.9-9.8c24.2-10.1,42.3-18.1,49.2-30.8c6.9-12.6,11.8-49.2,10.1-65
			C411.8,241.6,411.4,239.8,410.8,238.1z"/>
		<path class="st2" d="M395.3,240.6c-15.8,8.6-28.2,17-38,47.2s-15.1,56.9-34.4,62c0,0,8.7,3.5,35.4-7.8
			c8.5-3.6,18.8-10.1,25.6-13.9c13.3-7.5,21.3-13.5,22.6-15.8c7-12.6,11.8-49.2,10.1-65S403.2,236.3,395.3,240.6z"/>
	</g>
</g>
<g id="freepik--speech-bubble--inject-4_1_">
	<g id="freepik--speech-bubble--inject-4">
		<path class="st2" d="M310.8,106.7l-4.3-8.2l3.5-10.2v-6.2l-10.8,6.2v6.2l4.6,8c0.1,0.1,0.2,0.2,0.3,0.3l0,0L310.8,106.7z"/>
		<path class="st32" d="M310.8,106.7l-4.3-8.2l3.5-10.2v-6.2l-10.8,6.2v6.2l4.6,8c0.1,0.1,0.2,0.2,0.3,0.3l0,0L310.8,106.7z"/>
		<path class="st2" d="M336.5,32.8c-0.1-2.3-1.3-4.3-3.2-5.6l-2.6-1.5c-2-1-4.4-1-6.5,0l-40.2,23.3c-1.9,1.2-3.1,3.3-3.2,5.6v44.3
			c0.1,2.3,1.3,4.3,3.2,5.6l2.6,1.5c2,1,4.4,1,6.5,0l12.9-7.5l4.6,8c0.2,0.3,0.6,0.4,0.9,0.3c0.1-0.1,0.3-0.2,0.3-0.4l4.9-14.1
			l16.6-9.6c1.9-1.3,3.1-3.3,3.2-5.6V32.8z"/>
		<path class="st32" d="M280.7,98.8c0.1,2.3,1.3,4.3,3.2,5.6l2.6,1.5c1.8,0.9,4,1,5.9,0.3c-1.5,0.6-2.7-0.3-2.7-2.1V59.8
			c0-1.1,0.4-2.2,0.9-3.2l-9.1-5.2c-0.6,1-0.9,2.1-0.9,3.2V98.8z"/>
		<path class="st12" d="M336.4,31.8c-0.4-1.4-1.6-1.8-3.1-1L293,54.2c-1,0.6-1.7,1.4-2.3,2.4l-9.1-5.2c0.5-1,1.3-1.8,2.3-2.4
			l40.3-23.3c2-1,4.4-1,6.4,0l2.6,1.5C334.9,28.2,336.1,29.9,336.4,31.8z"/>
		<g id="freepik----inject-4">
			<path class="st11" d="M295.7,77.2c0-0.3,0-0.6,0.2-0.9c0.1-0.3,0.3-0.6,0.5-0.9l8.8-14.2c0-0.1,0.1-0.1,0.1-0.2l0.1-0.1
				c0.1-0.1,0.2-0.1,0.3,0c0.1,0.1,0.2,0.3,0.1,0.4v5.5c0,0.4-0.1,0.8-0.3,1.1c-0.1,0.3-0.3,0.5-0.4,0.8l-4.5,6.9l4.5,2.1
				c0.2,0.1,0.3,0.1,0.4,0.2c0.2,0.1,0.3,0.4,0.3,0.8v3.9c0,0.2,0,0.4-0.1,0.6c-0.1,0.2-0.2,0.3-0.3,0.4h-0.1c0,0-0.1,0-0.1,0
				l-8.8-4c-0.2-0.1-0.3-0.2-0.5-0.3c-0.1-0.2-0.2-0.5-0.2-0.7V77.2z"/>
			<path class="st11" d="M314.8,55.3c0.1-0.3,0.2-0.6,0.3-0.9c0.1-0.3,0.4-0.5,0.6-0.7l2.9-1.7c0.1-0.1,0.2-0.1,0.3,0
				c0.1,0.1,0.2,0.3,0.1,0.4c0,0.1,0,0.2,0,0.3l-7.4,31.5c-0.1,0.3-0.2,0.6-0.3,0.8c-0.1,0.3-0.4,0.5-0.7,0.7l-2.9,1.7
				c-0.1,0.1-0.2,0.1-0.3,0c-0.1-0.1-0.2-0.3-0.1-0.4c0-0.1,0-0.2,0-0.3L314.8,55.3z"/>
			<path class="st11" d="M330.9,60.4c0,0.3,0,0.6-0.2,0.9c-0.1,0.3-0.3,0.6-0.5,0.9l-8.8,14.2c0,0.1-0.1,0.1-0.1,0.2l-0.1,0.1
				c-0.1,0.1-0.2,0.1-0.3,0c-0.1-0.1-0.1-0.3-0.1-0.4v-5.5c0-0.4,0.1-0.8,0.2-1.1c0.2-0.3,0.3-0.5,0.5-0.7l3.8-5.9l-3.8-1.5
				c-0.2-0.1-0.3-0.1-0.4-0.2c-0.2-0.1-0.2-0.4-0.2-0.8v-5.5c0-0.2,0-0.4,0.1-0.6c0.1-0.2,0.2-0.3,0.3-0.4h0.1h0.1l8.8,4
				c0.4,0.1,0.7,0.6,0.6,1L330.9,60.4z"/>
		</g>
	</g>
</g>
<g id="freepik--text-boxes--inject-4">
	<g id="freepik--text-box--inject-4">
		<g id="freepik----inject-4_1_">
			<g id="freepik--speech-bubble--inject-4_2_">
				<g id="freepik--speach-bubble--inject-4">
					<path class="st8" d="M452.5,28.1l-54.9,29.1c-0.8,0.5-1.3,1.3-1.4,2.3l-1.1,30.1c0,1,0.5,1.9,1.3,2.4l5.2,3.2
						c0.8,0.5,1.8,0.5,2.7,0.1l54.9-29.1c0.8-0.5,1.3-1.3,1.4-2.3l1.1-30.1c0-0.9-0.5-1.8-1.3-2.3l-5.2-3.2
						C454.3,27.7,453.3,27.7,452.5,28.1z"/>
					<path class="st3" d="M461.6,33.5c-0.1-0.7-0.6-0.9-1.3-0.6L405.4,62c-0.4,0.2-0.7,0.6-1,1l-7.8-4.9c0.2-0.4,0.6-0.7,1-1
						l54.9-29.1c0.9-0.4,1.8-0.4,2.7,0.1l5.2,3.2C461.1,31.8,461.5,32.6,461.6,33.5z"/>
					<path class="st2" d="M460.3,32.9L405.4,62c-0.8,0.5-1.3,1.3-1.4,2.3l-1.1,30.1c0,0.8,0.6,1.2,1.3,0.8l54.9-29.1
						c0.8-0.5,1.3-1.3,1.4-2.3l1.1-30.1C461.7,32.9,461.1,32.5,460.3,32.9z"/>
				</g>
			</g>
		</g>
		<path class="st33" d="M417.1,70.1c0,0.2,0,0.6,0,1s0,0.8,0,1.3c0,0.4,0,0.9,0,1.3c0,0.4,0,0.7,0,1c0,0.3,0.1,0.7,0.1,1
			c0.1,0.3,0.2,0.5,0.4,0.8c0.2,0.2,0.4,0.3,0.6,0.3c0.4,0,0.7-0.1,1-0.3c0.4-0.2,0.7-0.4,1-0.7c0.5-0.5,0.8-1.1,1.1-1.7
			c0.1-0.3,0.2-0.6,0.2-0.8c0-0.2,0.1-0.5,0.2-0.7c0.1-0.2,0.2-0.3,0.4-0.4l2.2-1.2c0.1-0.1,0.2-0.1,0.3,0c0.1,0.1,0.1,0.2,0.1,0.4
			c0,0.9-0.2,1.9-0.5,2.8c-0.3,0.9-0.7,1.8-1.2,2.7c-0.5,0.8-1.1,1.6-1.8,2.3c-0.6,0.7-1.4,1.2-2.2,1.7c-0.7,0.4-1.4,0.6-2.2,0.6
			c-0.6,0-1.2-0.2-1.6-0.6c-0.5-0.5-0.8-1.1-1-1.7c-0.2-0.8-0.3-1.7-0.3-2.5c0-0.7,0.1-1.5,0.1-2.3c0-0.8,0.1-1.6,0.1-2.4
			c0.1-1,0.2-2,0.5-3c0.3-1,0.7-2,1.2-2.9c0.5-0.9,1.1-1.7,1.7-2.5c0.7-0.7,1.4-1.3,2.3-1.8c0.7-0.4,1.4-0.6,2.1-0.6
			c0.6,0,1.2,0.1,1.7,0.5c0.5,0.4,0.9,0.9,1.1,1.4c0.3,0.7,0.4,1.5,0.3,2.3c0,0.2-0.1,0.3-0.1,0.5c-0.1,0.1-0.2,0.2-0.3,0.3
			l-2.3,1.2c-0.2,0.1-0.3,0.1-0.4,0c-0.1-0.1-0.2-0.3-0.2-0.5c0-0.2-0.1-0.4-0.2-0.6c-0.1-0.2-0.2-0.4-0.4-0.5
			c-0.2-0.1-0.4-0.2-0.6-0.2c-0.4,0-0.7,0.1-1,0.3c-0.4,0.2-0.7,0.5-1,0.8c-0.3,0.3-0.5,0.7-0.7,1c-0.2,0.4-0.3,0.8-0.4,1.2
			C417.2,69.3,417.1,69.7,417.1,70.1z"/>
		<path class="st33" d="M432.3,54.9c0.6-0.4,1.3-0.6,2-0.6c0.6,0,1.1,0.1,1.6,0.4c0.4,0.3,0.8,0.7,1,1.1c0.2,0.5,0.4,1,0.4,1.5
			c0,0.2-0.1,0.3-0.1,0.5c-0.1,0.1-0.1,0.2-0.3,0.3l-2.3,1.2c-0.1,0.1-0.3,0.1-0.4,0.1c-0.1,0-0.2-0.1-0.3-0.2l-0.2-0.2
			c-0.1-0.1-0.2-0.2-0.3-0.2c-0.2,0-0.3-0.1-0.5,0c-0.3,0-0.5,0.1-0.8,0.3c-0.2,0.1-0.4,0.3-0.6,0.4c-0.2,0.1-0.4,0.3-0.5,0.5
			c-0.2,0.2-0.3,0.4-0.4,0.6c-0.1,0.2-0.2,0.5-0.2,0.7c0,0.2,0,0.4,0.1,0.6c0.1,0.1,0.3,0.2,0.5,0.2c0.3,0,0.7,0,1-0.1l1.6-0.4
			c0.5-0.1,1.1-0.2,1.7-0.2c0.4,0,0.8,0.2,1.2,0.5c0.3,0.3,0.6,0.7,0.7,1.2c0.1,0.7,0.2,1.3,0.2,2c0,0.9-0.2,1.8-0.5,2.6
			c-0.3,0.8-0.7,1.7-1.2,2.4c-0.5,0.8-1.1,1.4-1.8,2.1c-0.7,0.6-1.4,1.1-2.2,1.6c-0.7,0.4-1.4,0.6-2.2,0.7c-0.6,0.1-1.1-0.1-1.6-0.4
			c-0.5-0.3-0.8-0.7-1-1.2c-0.3-0.5-0.4-1.1-0.4-1.7c0-0.2,0.1-0.3,0.1-0.5c0.1-0.1,0.1-0.2,0.3-0.3l2.3-1.2
			c0.1-0.1,0.2-0.1,0.4-0.1c0.1,0,0.2,0.1,0.3,0.1c0.1,0.1,0.1,0.1,0.2,0.2c0.1,0.1,0.2,0.2,0.4,0.3c0.2,0.1,0.4,0.1,0.6,0.1
			c0.3,0,0.6-0.1,0.9-0.3c0.6-0.3,1.1-0.7,1.6-1.1c0.4-0.4,0.6-0.9,0.7-1.4c0-0.2,0-0.4-0.2-0.5c-0.2-0.1-0.4-0.1-0.7-0.1
			c-0.4,0-0.8,0.1-1.1,0.2c-0.5,0.1-1,0.2-1.7,0.4c-0.9,0.3-1.9,0.1-2.6-0.5c-0.6-0.9-0.9-2.1-0.7-3.2c0-0.8,0.2-1.6,0.4-2.4
			c0.3-0.8,0.6-1.6,1.1-2.4c0.4-0.8,1-1.5,1.6-2.1C430.8,55.8,431.5,55.3,432.3,54.9z"/>
		<path class="st33" d="M445,48.2c0.6-0.4,1.3-0.6,2-0.6c0.6,0,1.1,0.1,1.6,0.4c0.4,0.3,0.8,0.7,1,1.1c0.2,0.5,0.4,1,0.3,1.6
			c0,0.2-0.1,0.3-0.1,0.5c-0.1,0.1-0.1,0.2-0.3,0.3l-2.3,1.2c-0.1,0.1-0.3,0.1-0.4,0.1c-0.1,0-0.2-0.1-0.3-0.2l-0.2-0.2
			c-0.1-0.1-0.2-0.2-0.3-0.2c-0.2,0-0.3-0.1-0.5,0c-0.3,0-0.5,0.1-0.8,0.3c-0.2,0.1-0.4,0.3-0.6,0.4c-0.2,0.1-0.4,0.3-0.6,0.5
			c-0.2,0.2-0.3,0.4-0.4,0.6c-0.1,0.2-0.2,0.5-0.2,0.7c0,0.2,0,0.4,0.1,0.6c0.1,0.1,0.3,0.2,0.5,0.2c0.3,0,0.7,0,1-0.1l1.6-0.4
			c0.6-0.2,1.2-0.2,1.8-0.2c0.4,0,0.8,0.2,1.2,0.5c0.3,0.3,0.6,0.8,0.7,1.2c0.1,0.7,0.2,1.3,0.2,2c0,0.9-0.2,1.8-0.5,2.6
			c-0.3,0.9-0.7,1.7-1.2,2.4c-0.5,0.8-1.1,1.4-1.8,2.1c-0.7,0.6-1.4,1.1-2.2,1.6c-0.7,0.4-1.4,0.6-2.2,0.7c-0.6,0-1.2-0.1-1.7-0.4
			c-0.5-0.3-0.8-0.7-1-1.2c-0.3-0.5-0.4-1.2-0.4-1.8c0-0.2,0.1-0.3,0.1-0.5c0-0.1,0.1-0.2,0.3-0.3l2.3-1.2c0.1-0.1,0.2-0.1,0.4-0.1
			c0.1,0,0.2,0.1,0.3,0.1c0.1,0.1,0.1,0.2,0.2,0.2c0.1,0.1,0.2,0.2,0.4,0.3c0.2,0.1,0.4,0.1,0.6,0.1c0.3,0,0.6-0.1,0.9-0.3
			c0.6-0.3,1.1-0.7,1.6-1.1c0.4-0.4,0.6-0.9,0.7-1.4c0-0.2,0-0.4-0.2-0.5c-0.2-0.1-0.4-0.2-0.7-0.1c-0.4,0-0.8,0.1-1.1,0.2
			c-0.5,0.1-1,0.2-1.7,0.4c-0.9,0.3-1.9,0.1-2.6-0.5c-0.6-1-0.8-2.1-0.7-3.2c0-0.8,0.2-1.6,0.4-2.4c0.3-0.8,0.6-1.6,1.1-2.4
			c0.4-0.8,1-1.5,1.6-2.1C443.5,49.1,444.2,48.6,445,48.2z"/>
	</g>
	<g id="freepik--text-box--inject-4_1_">
		<g id="freepik----inject-4_2_">
			<g id="freepik--speech-bubble--inject-4_3_">
				<g id="freepik--speach-bubble--inject-4_1_">
					<path class="st8" d="M450.3,90.5l-54.9,29.1c-0.8,0.5-1.3,1.3-1.4,2.3l-1.1,30.1c0,0.9,0.5,1.8,1.3,2.3l5.2,3.2
						c0.8,0.5,1.8,0.5,2.7,0.1l54.9-29.1c0.8-0.5,1.3-1.3,1.4-2.3l1.1-30.1c0-0.9-0.5-1.8-1.3-2.3l-5.2-3.2
						C452.1,90.2,451.2,90.1,450.3,90.5z"/>
					<path class="st3" d="M459.4,95.9c-0.1-0.7-0.6-0.9-1.3-0.6l-54.9,29.1c-0.4,0.2-0.7,0.6-1,1l-7.8-4.9c0.2-0.4,0.6-0.7,1-0.9
						l54.9-29.1c0.9-0.4,1.8-0.4,2.7,0.1l5.2,3.2C458.9,94.3,459.3,95.1,459.4,95.9z"/>
					<path class="st2" d="M458.1,95.4l-54.9,29.1c-0.8,0.5-1.3,1.3-1.4,2.3l-1.1,30.1c0,0.8,0.6,1.2,1.3,0.8l54.9-29.1
						c0.8-0.5,1.3-1.3,1.4-2.3l1.1-30.1C459.5,95.3,458.9,95,458.1,95.4z"/>
				</g>
			</g>
		</g>
		<path class="st33" d="M415.4,125.4c0.1-0.1,0.2-0.1,0.3,0c0.1,0.1,0.1,0.3,0.1,0.4l-0.6,17.1c0,0.2-0.1,0.4-0.2,0.6
			c-0.1,0.2-0.2,0.3-0.3,0.4l-2.3,1.2c-0.1,0.1-0.2,0.1-0.3,0c-0.1-0.1-0.1-0.3-0.1-0.4l0.2-6.5l-3.9,2.1l-0.2,6.5
			c0,0.2-0.1,0.4-0.2,0.6c-0.1,0.2-0.2,0.3-0.3,0.4l-2.3,1.2c-0.1,0.1-0.2,0.1-0.3,0c-0.1-0.1-0.1-0.3-0.1-0.4l0.6-17.1
			c0-0.2,0.1-0.4,0.2-0.6c0.1-0.2,0.2-0.3,0.3-0.4l2.3-1.2c0.1-0.1,0.2-0.1,0.3,0c0.1,0.1,0.1,0.3,0.1,0.4l-0.2,6.4l3.9-2.1l0.2-6.4
			c0-0.2,0.1-0.4,0.2-0.6c0.1-0.2,0.2-0.3,0.3-0.4L415.4,125.4z"/>
		<path class="st33" d="M428.2,118.6c0.1-0.1,0.2-0.1,0.3,0c0.1,0.1,0.1,0.3,0.1,0.4l-0.1,2.8c0,0.2-0.1,0.4-0.2,0.6
			c-0.1,0.2-0.2,0.3-0.3,0.4l-3.1,1.6l-0.5,13.6c0,0.2-0.1,0.4-0.2,0.6c-0.1,0.2-0.2,0.3-0.3,0.4l-2.3,1.2c-0.1,0.1-0.2,0.1-0.3,0
			c-0.1-0.1-0.1-0.3-0.1-0.4l0.5-13.6l-3.1,1.6c-0.1,0.1-0.2,0.1-0.3,0c-0.1-0.1-0.1-0.3-0.1-0.4l0.1-2.8c0-0.2,0.1-0.4,0.2-0.6
			c0.1-0.2,0.2-0.3,0.3-0.4L428.2,118.6z"/>
		<path class="st33" d="M435.8,128.2c-0.1-0.1-0.2-0.2-0.2-0.3l-1.5-3.5l-0.3,8.8c0,0.2-0.1,0.4-0.2,0.6c-0.1,0.2-0.2,0.3-0.3,0.4
			l-2.3,1.2c-0.1,0.1-0.2,0.1-0.3,0c-0.1-0.1-0.1-0.3-0.1-0.4l0.6-17.1c0-0.2,0.1-0.4,0.2-0.6c0.1-0.2,0.2-0.3,0.3-0.4l2-1.1
			c0.2-0.1,0.4-0.1,0.5,0c0.1,0.1,0.2,0.2,0.2,0.3l2.6,5.8l3.1-8.8c0.1-0.2,0.2-0.4,0.2-0.6c0.1-0.2,0.3-0.4,0.5-0.6l2-1.1
			c0.1-0.1,0.2-0.1,0.3,0c0.1,0.1,0.1,0.3,0.1,0.4l-0.6,17.1c0,0.2-0.1,0.4-0.2,0.6c-0.1,0.2-0.2,0.3-0.3,0.4l-2.3,1.2
			c-0.1,0.1-0.2,0.1-0.3,0c-0.1-0.1-0.1-0.3-0.1-0.4l0.3-8.8l-1.8,5.3c-0.1,0.2-0.2,0.4-0.2,0.6c-0.1,0.2-0.2,0.3-0.4,0.4l-1.1,0.6
			C436,128.3,435.9,128.3,435.8,128.2z"/>
		<path class="st33" d="M454.8,118.5c0.1-0.1,0.2-0.1,0.3,0c0.1,0.1,0.1,0.3,0.1,0.4l-0.1,2.8c0,0.2-0.1,0.4-0.2,0.6
			c-0.1,0.2-0.2,0.3-0.3,0.4l-8.2,4.3c-0.1,0.1-0.2,0.1-0.3,0c-0.1-0.1-0.1-0.3-0.1-0.4l0.6-17.1c0-0.2,0.1-0.4,0.2-0.6
			c0.1-0.2,0.2-0.3,0.3-0.4l2.3-1.2c0.1-0.1,0.2-0.1,0.3,0c0.1,0.1,0.1,0.3,0.1,0.4l-0.5,13.6L454.8,118.5z"/>
	</g>
	<g id="freepik--text-box--inject-4_2_">
		<g id="freepik----inject-4_3_">
			<g id="freepik--speech-bubble--inject-4_4_">
				<g id="freepik--speach-bubble--inject-4_2_">
					<path class="st8" d="M448.1,153l-54.9,29.1c-0.8,0.5-1.3,1.3-1.4,2.3l-1.1,30.1c0,0.9,0.5,1.8,1.3,2.3l5.2,3.2
						c0.8,0.5,1.8,0.5,2.7,0.1l54.9-29.1c0.8-0.5,1.3-1.3,1.4-2.3l1.1-30c0-0.9-0.5-1.8-1.3-2.4l-5.2-3.2
						C450,152.7,449,152.6,448.1,153z"/>
					<path class="st3" d="M457.2,158.4c-0.1-0.7-0.6-0.9-1.3-0.6L401,186.9c-0.4,0.2-0.7,0.6-1,1l-7.8-4.9c0.2-0.4,0.6-0.7,1-1
						l54.9-29.1c0.9-0.4,1.8-0.4,2.7,0.1l5.2,3.2C456.7,156.7,457.2,157.5,457.2,158.4z"/>
					<path class="st2" d="M455.9,157.8L401,186.9c-0.8,0.5-1.3,1.3-1.4,2.3l-1.1,30.1c0,0.9,0.6,1.2,1.3,0.8l54.9-29.1
						c0.8-0.5,1.3-1.3,1.4-2.3l1.1-30C457.3,157.8,456.7,157.4,455.9,157.8z"/>
				</g>
			</g>
		</g>
		<path class="st33" d="M413.8,194.5c0,0.2,0,0.6,0,1c0,0.4,0,0.8,0,1.3s0,0.9,0,1.3c0,0.4,0,0.7,0,1c0,0.4,0.1,0.7,0.1,1.1
			c0.1,0.3,0.2,0.5,0.4,0.8c0.2,0.2,0.4,0.3,0.6,0.3c0.4,0,0.7-0.1,1-0.3c0.4-0.2,0.7-0.4,1-0.7c0.2-0.3,0.5-0.6,0.7-0.9
			c0.2-0.3,0.3-0.6,0.4-0.9c0.1-0.3,0.2-0.5,0.2-0.8c0-0.2,0.1-0.5,0.2-0.7c0.1-0.2,0.2-0.3,0.4-0.4l2.3-1.2c0.1-0.1,0.2-0.1,0.3,0
			c0.1,0.1,0.1,0.2,0.1,0.4c0,0.9-0.2,1.9-0.5,2.8c-0.3,0.9-0.7,1.8-1.2,2.7c-0.5,0.8-1.1,1.6-1.8,2.3c-0.6,0.7-1.4,1.2-2.2,1.7
			c-0.7,0.4-1.4,0.6-2.2,0.6c-0.6,0-1.2-0.2-1.6-0.6c-0.5-0.5-0.8-1.1-1-1.7c-0.2-0.8-0.3-1.7-0.3-2.5c0-0.7,0.1-1.5,0.1-2.3
			c0-0.8,0.1-1.6,0.1-2.4c0.1-1,0.2-2,0.5-3c0.3-1,0.7-2,1.2-2.9c0.5-0.9,1.1-1.7,1.7-2.5c0.7-0.7,1.4-1.3,2.3-1.8
			c0.7-0.4,1.4-0.6,2.1-0.6c0.6,0,1.2,0.1,1.7,0.5c0.5,0.4,0.9,0.9,1.1,1.4c0.3,0.7,0.4,1.5,0.3,2.3c0,0.2-0.1,0.3-0.1,0.5
			c-0.1,0.1-0.2,0.2-0.3,0.3l-2.3,1.2c-0.2,0.1-0.3,0.1-0.4,0c-0.1-0.2-0.2-0.3-0.2-0.5c0-0.2-0.1-0.4-0.2-0.6
			c-0.1-0.2-0.2-0.3-0.4-0.5c-0.2-0.1-0.4-0.2-0.6-0.2c-0.4,0-0.7,0.1-1,0.3c-0.4,0.2-0.7,0.5-1,0.8c-0.3,0.3-0.5,0.7-0.7,1
			c-0.2,0.4-0.3,0.8-0.4,1.2C413.9,193.7,413.8,194.1,413.8,194.5z"/>
		<path class="st33" d="M429.7,191.6l-0.2,4.4c0,0.2-0.1,0.4-0.2,0.6c-0.1,0.2-0.2,0.3-0.3,0.4l-2.2,1.2c-0.1,0.1-0.2,0.1-0.3,0
			c-0.1-0.1-0.1-0.3-0.1-0.4l0.2-4.4l-2.7,1.4c-0.1,0.1-0.2,0.1-0.3,0c-0.1-0.1-0.1-0.3-0.1-0.4l0.1-2.7c0-0.2,0.1-0.4,0.2-0.6
			c0.1-0.2,0.2-0.3,0.3-0.4l2.7-1.4l0.2-4.4c0-0.2,0.1-0.4,0.2-0.6c0.1-0.2,0.2-0.3,0.3-0.4l2.2-1.2c0.1-0.1,0.2-0.1,0.3,0
			c0.1,0.1,0.1,0.3,0.1,0.4l-0.2,4.4l2.7-1.4c0.1-0.1,0.2-0.1,0.3,0c0.1,0.1,0.1,0.3,0.1,0.4l-0.1,2.7c0,0.2-0.1,0.4-0.2,0.6
			c-0.1,0.2-0.2,0.3-0.3,0.4L429.7,191.6z"/>
		<path class="st33" d="M441.3,185.4l-0.2,4.4c0,0.2-0.1,0.4-0.2,0.6c-0.1,0.2-0.2,0.3-0.3,0.4l-2.2,1.2c-0.1,0.1-0.2,0.1-0.3,0
			c-0.1-0.1-0.1-0.3-0.1-0.4l0.2-4.4l-2.7,1.4c-0.1,0.1-0.2,0.1-0.3,0c-0.1-0.1-0.1-0.3-0.1-0.4l0.1-2.7c0-0.2,0.1-0.4,0.2-0.6
			c0.1-0.2,0.2-0.3,0.3-0.4l2.7-1.4l0.2-4.4c0-0.2,0.1-0.4,0.2-0.6c0.1-0.2,0.2-0.3,0.3-0.4l2.2-1.2c0.1-0.1,0.2-0.1,0.3,0
			c0.1,0.1,0.1,0.3,0.1,0.4l-0.2,4.4l2.7-1.4c0.1-0.1,0.2-0.1,0.3,0c0.1,0.1,0.1,0.3,0.1,0.4l-0.1,2.7c0,0.2-0.1,0.4-0.2,0.6
			c-0.1,0.2-0.2,0.3-0.3,0.4L441.3,185.4z"/>
	</g>
</g>
</svg>
